<svg xmlns="http://www.w3.org/2000/svg" width="142" height="102.295" viewBox="0 0 142 102.295">
  <g id="zheket_logo" transform="translate(0.24)">
    <path id="Path_1" data-name="Path 1" d="M2.12,59.814H2.048a1.982,1.982,0,0,1,0-3.964H64.384v3.963H2.12Z" transform="translate(0.043 34.931)" fill="#fff" fill-rule="evenodd"/>
    <rect id="Rectangle_2" data-name="Rectangle 2" width="8.233" height="8.233" transform="translate(33.258 21.019) rotate(135)" fill="#fff"/>
    <rect id="Rectangle_3" data-name="Rectangle 3" width="8.233" height="8.231" transform="matrix(-0.707, 0.707, -0.707, -0.707, 33.255, 32.637)" fill="#fff"/>
    <rect id="Rectangle_4" data-name="Rectangle 4" width="8.231" height="8.233" transform="translate(140.92 21.017) rotate(135)" fill="#fff"/>
    <rect id="Rectangle_5" data-name="Rectangle 5" width="8.233" height="8.233" transform="matrix(-0.707, 0.707, -0.707, -0.707, 140.915, 32.642)" fill="#fff"/>
    <path id="Path_2" data-name="Path 2" d="M13.794,50.624V44.678h3.225V58.554H13.794V52.487H10.34v6.079H7.115V44.678H10.34v5.93ZM21.635,52.7h2.838l-1.487-4.985Zm-3.274,5.865L22.31,44.691h3.113l4.213,13.875H26.212L25,54.465h-3.86L20,58.566Zm19.086,0-3.113-6.822,3.436-7.066h1.7l-2.492,5.075,4.018,8.8Zm-6.477,0V44.678h3.225V58.554Zm11.024,0V44.678H49.2v1.869H45.22v4.039h3.768v1.869H45.22v4.231h4.194v1.869Zm11.637,0V46.555H50.563V44.678h9.354v1.869H56.85V58.554Z" transform="translate(4.451 27.943)" fill="#fff" fill-rule="evenodd"/>
    <path id="Path_3" data-name="Path 3" d="M.415,46.552V44.683h9.67L4.559,56.692H9.753v1.871H.1l5.518-12.01Z" transform="translate(0.063 27.947)" fill="#ffa000" fill-rule="evenodd"/>
    <path id="Path_4" data-name="Path 4" d="M42.844,34.343,68.05,52.323l7.812-6.653,3.113-3.956L42.844,15.941Z" transform="translate(26.797 9.97)" fill="#ffa000" fill-rule="evenodd"/>
    <path id="Path_5" data-name="Path 5" d="M42.844,34.343,68.05,52.323l7.812-6.653,3.113-3.956L42.844,15.941Z" transform="translate(26.797 9.97)" fill="none" stroke="#4d4d4d" stroke-width="0.22"/>
    <path id="Path_6" data-name="Path 6" d="M46.322,31.334l23.6,16.851.033.026v.041L69.6,52.822v.125l-.1-.076L42.221,33.47l-.029-.021V16.663h.062l2.029-.283h.049L79.423,41.365l.029.021V59.841l-.112-.08c-4.018-2.867-3.82-4.234-3.626-5.494a2.539,2.539,0,0,0-.374-2.107V45.646l.993-1.338-.982-.774L46.321,22.872Z" transform="translate(26.389 10.245)" fill="#fff" fill-rule="evenodd"/>
    <path id="Path_7" data-name="Path 7" d="M42.221,26.547,79.341.078,79.452,0V18.58l-.028.021L61.783,31.247l-.112.081V26.272l.028-.021,13.628-9.782V8L47.106,28.127l-.657.489-.936,6.479-.128,6.279,0,.072h-.067l-3.044.115-.076,0v-15Z" transform="translate(26.389)" fill="#fff"/>
    <path id="Path_8" data-name="Path 8" d="M68.57,45.559v-.15H23.451a35.58,35.58,0,0,1-8.727-.532h-.062a17.257,17.257,0,0,1-5.195-2.3,16.546,16.546,0,0,1-4.09-3.823c-.249-.33-.489-.671-.718-1.026-.172-.276-.336-.554-.494-.831a19.561,19.561,0,0,0,.948,5.374,18.231,18.231,0,0,0,6.874,9.242,19.776,19.776,0,0,0,5.585,2.71c.371.117.8.221,1.247.32s1.052.2,1.608.288c.637.1,1.247.169,1.788.219s1.018.085,1.4.093H64.434v4.13H23.707a30.417,30.417,0,0,1-3.86-.349,24.529,24.529,0,0,1-3.487-.753A22.717,22.717,0,0,1,.012,35.627,22.532,22.532,0,0,1,4.118,22.978,23.19,23.19,0,0,1,14.74,14.667l.1-.037v1.45H14.79a13.678,13.678,0,0,0-6.333,4.75A12.727,12.727,0,0,0,6.01,28.147,13.414,13.414,0,0,0,8.644,36.26a12.739,12.739,0,0,0,7.011,4.616,32.476,32.476,0,0,0,7.714.416H68.687a4.186,4.186,0,0,1,2.875,1.247,4.257,4.257,0,0,1,1.151,2.988V79.532l28.987-20.7V50.4L76.963,68.071l-.111.08V63.094l.029-.021,28.756-20.518h.224V60.976l-.029.021L72.393,84.886a3.314,3.314,0,0,1-1.248.714,2.04,2.04,0,0,1-1.484-.174,2.1,2.1,0,0,1-.831-.832,2.355,2.355,0,0,1-.254-1.185V45.559Z" transform="translate(0 9.15)" fill="#fff" fill-rule="evenodd"/>
    <path id="Path_9" data-name="Path 9" d="M70.779,51.373,95.813,33.5l.112-.08V52.008l-.031.021L66.116,73.347l-.057.046a2.18,2.18,0,0,1-1.572.514,2.038,2.038,0,0,1-1.364-.686l-.036-.046-.083-.1a2.03,2.03,0,0,1-.395-1.412,2.076,2.076,0,0,1,.727-1.388l.125-.1,3.082-2.207.115-.083,25.131-18V41.432L70.86,56.371l-.111.08V51.4Z" transform="translate(39.154 20.904)" fill="#fff"/>
    <path id="Path_10" data-name="Path 10" d="M78.69,52.432l-.034-41.473-6.92,4.969L71.749,43.8v.037l-.028.021L67.752,46.7l-.112.083v-.141l-.016-32.785v-.037l.029-.02,15-10.772.114-.08v.138L82.8,54.5v.039l-.029.02-15,10.713-.112.08v-.138l0-4.891v-.037l.029-.021,3.969-2.784Z" transform="translate(42.296 1.842)" fill="#fff"/>
    <rect id="Rectangle_6" data-name="Rectangle 6" width="8.233" height="8.233" transform="matrix(-0.707, 0.707, -0.707, -0.707, 140.912, 44.279)" fill="#fff"/>
    <path id="Path_11" data-name="Path 11" d="M47.283,66.924,76.131,46.384l.112-.08v5.057l-.031.021L72.227,54.23,47.364,71.923l-.112.08V66.945Z" transform="translate(29.554 28.96)" fill="#ffa000"/>
    <rect id="Rectangle_7" data-name="Rectangle 7" width="142" height="102" transform="translate(-0.24 0.295)" fill="none"/>
  </g>
</svg>
