<svg xmlns="http://www.w3.org/2000/svg" width="69.153" height="87" viewBox="0 0 69.153 87">
  <g id="charge-svgrepo-com" transform="translate(-4.25 -2.25)">
    <path id="Path_778" data-name="Path 778" d="M11.317,30.85a3.346,3.346,0,1,0,6.692,0ZM18.009,21.5a3.346,3.346,0,1,0-6.692,0Zm-6.692,0V30.85h6.692V21.5Z" transform="translate(24.461 55.054)" fill="#363795"/>
    <path id="Path_779" data-name="Path 779" d="M49.411,65.556a3.346,3.346,0,0,0-6.692,0Zm-13.881,0a3.346,3.346,0,0,0-6.692,0ZM8.88,43.942l-3.239.841Zm0-20.076,3.239.841Zm59.894,0-3.239.841Zm0,20.076,3.239.841ZM48.941,61.153l-.693-3.274h0Zm-20.229,0,.693-3.274h0Zm0-54.5.693,3.274Zm20.229,0,.693-3.274h0ZM26.664,60.719l-.693,3.274h0Zm24.325,0,.693,3.274h0Zm0-53.631L50.3,10.362Zm-24.325,0-.693-3.274ZM42.719,65.556v3.8h6.692v-3.8Zm-7.189,3.8v-3.8H28.837v3.8Zm-6.692,0A10.209,10.209,0,0,0,39.124,79.481V72.789a3.518,3.518,0,0,1-3.595-3.436Zm13.881,0a3.518,3.518,0,0,1-3.594,3.436v6.692A10.208,10.208,0,0,0,49.411,69.352ZM27.357,10.362l2.048-.434L28.019,3.381l-2.048.434Zm20.891-.434,2.048.434,1.387-6.547-2.048-.434ZM50.3,57.446l-2.048.434,1.387,6.547,2.048-.434Zm-20.891.434-2.048-.434-1.386,6.547,2.048.434ZM12.118,43.1a36.544,36.544,0,0,1,0-18.393L5.641,23.024a43.236,43.236,0,0,0,0,21.759ZM65.535,24.707a36.543,36.543,0,0,1,0,18.393l6.477,1.683a43.242,43.242,0,0,0,0-21.759ZM48.248,57.879a45.5,45.5,0,0,1-18.843,0l-1.387,6.547a52.192,52.192,0,0,0,21.616,0ZM29.405,9.928a45.5,45.5,0,0,1,18.843,0l1.387-6.547a52.193,52.193,0,0,0-21.616,0ZM27.357,57.446A19.9,19.9,0,0,1,12.118,43.1L5.641,44.783a26.589,26.589,0,0,0,20.33,19.21Zm24.325,6.547a26.59,26.59,0,0,0,20.33-19.21L65.535,43.1A19.9,19.9,0,0,1,50.3,57.446ZM50.3,10.362A19.9,19.9,0,0,1,65.535,24.707l6.477-1.683A26.589,26.589,0,0,0,51.683,3.815ZM25.971,3.815A26.589,26.589,0,0,0,5.641,23.024l6.477,1.683A19.9,19.9,0,0,1,27.357,10.362Z" transform="translate(0 0)" fill="#363853"/>
    <path id="Path_780" data-name="Path 780" d="M24.847,11.527a3.346,3.346,0,1,0-5.178-4.239ZM13,20.712l-2.589-2.12A3.346,3.346,0,0,0,13,24.058Zm13.882,0,2.589,2.12a3.346,3.346,0,0,0-2.589-5.466ZM15.041,29.9a3.346,3.346,0,0,0,5.178,4.239ZM19.668,7.288l-9.254,11.3,5.179,4.239,9.254-11.3ZM13,24.058H26.885V17.365H13ZM24.3,18.592,15.041,29.9l5.178,4.239,9.254-11.3Z" transform="translate(18.717 13.192)" fill="#363795"/>
  </g>
</svg>
