<svg xmlns="http://www.w3.org/2000/svg" width="76.846" height="81" viewBox="0 0 76.846 81">
  <g id="checklist-svgrepo-com" transform="translate(-2.75 -2.25)">
    <path id="Path_765" data-name="Path 765" d="M7.25,56.243l3.037-.7Zm0-24.488,3.037.7Zm67.846,0-3.036.7Zm0,24.488-3.036-.7ZM53.136,78.717l.727,3.029Zm-23.927,0,.727-3.029Zm0-69.436.727,3.029Zm23.927,0,.727-3.029ZM27.964,5.365a3.115,3.115,0,0,0-6.231,0ZM21.733,15.807a3.115,3.115,0,1,0,6.231,0ZM60.612,5.365a3.115,3.115,0,1,0-6.231,0ZM54.382,15.807a3.115,3.115,0,1,0,6.231,0Zm-44.1,39.74a51.722,51.722,0,0,1,0-23.1L4.213,31.06a57.952,57.952,0,0,0,0,25.88Zm61.773-23.1a51.721,51.721,0,0,1,0,23.1l6.073,1.392a57.957,57.957,0,0,0,0-25.88ZM52.409,75.688a48.1,48.1,0,0,1-22.473,0l-1.454,6.059a54.335,54.335,0,0,0,25.382,0ZM29.936,12.311a48.106,48.106,0,0,1,22.473,0l1.454-6.059a54.335,54.335,0,0,0-25.382,0Zm0,63.377a26.705,26.705,0,0,1-19.65-20.141L4.213,56.939A32.936,32.936,0,0,0,28.482,81.747Zm23.927,6.059A32.937,32.937,0,0,0,78.133,56.939l-6.073-1.392a26.706,26.706,0,0,1-19.65,20.141ZM52.409,12.311a26.706,26.706,0,0,1,19.65,20.141l6.073-1.392A32.936,32.936,0,0,0,53.864,6.252ZM28.482,6.252A32.936,32.936,0,0,0,4.213,31.06l6.073,1.392a26.706,26.706,0,0,1,19.65-20.141Zm-6.749-.887V15.807h6.231V5.365Zm32.648,0V15.807h6.231V5.365Z" transform="translate(0 0)" fill="#363795"/>
    <path id="Path_766" data-name="Path 766" d="M4.213,56.939a3.115,3.115,0,1,0,6.073-1.392ZM7.25,31.756l-3.037-.7Zm67.846,0,3.037-.7Zm0,24.488-3.036-.7ZM52.409,75.688a3.115,3.115,0,0,0,1.454,6.059ZM29.209,9.282l-.727-3.029Zm23.927,0,.727-3.029ZM27.964,5.365a3.115,3.115,0,0,0-6.231,0ZM21.733,15.807a3.115,3.115,0,1,0,6.231,0ZM60.612,5.365a3.115,3.115,0,1,0-6.231,0ZM54.382,15.807a3.115,3.115,0,1,0,6.231,0Zm-44.1,39.74a51.722,51.722,0,0,1,0-23.1L4.213,31.06a57.952,57.952,0,0,0,0,25.88Zm61.773-23.1a51.721,51.721,0,0,1,0,23.1l6.073,1.392a57.957,57.957,0,0,0,0-25.88ZM29.936,12.311a48.106,48.106,0,0,1,22.473,0l1.454-6.059a54.335,54.335,0,0,0-25.382,0ZM53.864,81.747A32.937,32.937,0,0,0,78.133,56.939l-6.073-1.392a26.706,26.706,0,0,1-19.65,20.141ZM52.409,12.311a26.706,26.706,0,0,1,19.65,20.141l6.073-1.392A32.936,32.936,0,0,0,53.864,6.252ZM28.482,6.252A32.936,32.936,0,0,0,4.213,31.06l6.073,1.392a26.706,26.706,0,0,1,19.65-20.141Zm-6.749-.887V15.807h6.231V5.365Zm32.648,0V15.807h6.231V5.365Z" transform="translate(0 0)" fill="#363853"/>
    <path id="Path_767" data-name="Path 767" d="M11.893,13.56a3.115,3.115,0,1,0-4.055,4.731Zm2.126,5.926-2.027,2.365a3.115,3.115,0,0,0,4.055,0Zm10.335-4.756A3.115,3.115,0,0,0,20.3,10ZM11.893,31.363a3.115,3.115,0,0,0-4.055,4.731Zm2.126,5.926-2.027,2.365a3.115,3.115,0,0,0,4.055,0Zm10.335-4.755A3.115,3.115,0,0,0,20.3,27.8Zm8.357-17.942a3.115,3.115,0,1,0,0,6.231ZM47.25,20.821a3.115,3.115,0,0,0,0-6.231ZM32.711,32.393a3.115,3.115,0,1,0,0,6.231ZM47.25,38.623a3.115,3.115,0,0,0,0-6.231ZM7.838,18.291l4.154,3.56,4.055-4.731-4.154-3.56Zm8.209,3.56,8.308-7.121L20.3,10l-8.308,7.121ZM7.838,36.093l4.154,3.56,4.055-4.73-4.154-3.561Zm8.209,3.56,8.308-7.12L20.3,27.8l-8.308,7.121ZM32.711,20.821H47.25V14.591H32.711Zm0,17.8H47.25V32.393H32.711Z" transform="translate(12.615 22.077)" fill="#363795"/>
  </g>
</svg>
