<svg xmlns="http://www.w3.org/2000/svg" width="87.523" height="87.523" viewBox="0 0 87.523 87.523">
  <g id="edit-svgrepo-com" transform="translate(0.273 0.25)">
    <path id="Path_760" data-name="Path 760" d="M57,20.5C49.5,23,39.5,13,42,5.5m-.607.607L25.238,22.263A54.808,54.808,0,0,0,10.822,47.725l-.781,3.123a1.328,1.328,0,0,0,1.611,1.611l3.123-.781A54.809,54.809,0,0,0,40.237,37.262L56.394,21.105a10.606,10.606,0,0,0-15-15Z" transform="translate(24.5 0)" fill="none" stroke="#363795" stroke-width="6.5"/>
    <path id="Path_761" data-name="Path 761" d="M43.5,3A60.091,60.091,0,0,0,29.777,4.588,33.8,33.8,0,0,0,4.588,29.777a60.091,60.091,0,0,0,0,27.446A33.8,33.8,0,0,0,29.777,82.412a60.092,60.092,0,0,0,27.446,0A33.8,33.8,0,0,0,82.412,57.223,60.082,60.082,0,0,0,84,43.5" transform="translate(0 0)" fill="none" stroke="#363853" stroke-linecap="round" stroke-width="6.5"/>
  </g>
</svg>
