<svg xmlns="http://www.w3.org/2000/svg" width="1253.596" height="582.574" viewBox="0 0 1253.596 582.574">
  <g id="Group_52" data-name="Group 52" transform="translate(47.012 -264.338)">
    <g id="Group_41" data-name="Group 41" transform="translate(-43.762 361.333)">
      <path id="Path_1" data-name="Path 1" d="M126.69,651.719V384.9s1.942-15.759,16.39-15.759H523.148s17.342,1.625,17.342,16.674v58.013" transform="translate(241.759 -193.557)" fill="none" stroke="#fff" stroke-linecap="round" stroke-width="6.5"/>
      <path id="Path_2" data-name="Path 2" d="M168.15,490.013V242.36H538.408v52.287" transform="translate(223.185 -45.439)" fill="none" stroke="#fff" stroke-linecap="round" stroke-width="6.5"/>
      <ellipse id="Ellipse_1" data-name="Ellipse 1" cx="2.99" cy="2.874" rx="2.99" ry="2.874" transform="translate(574.799 184.06)" fill="none" stroke="#fff" stroke-linecap="round" stroke-width="6.5"/>
      <ellipse id="Ellipse_2" data-name="Ellipse 2" cx="4.058" cy="1.334" rx="4.058" ry="1.334" transform="translate(551.57 185.6)" fill="#384264" stroke="#fff" stroke-linecap="round" stroke-width="7"/>
      <path id="Path_3" data-name="Path 3" d="M60.8,748.81l-8.977-8.63H309.477" transform="translate(269.424 -279.579)" fill="none" stroke="#fff" stroke-linecap="round" stroke-width="6.5"/>
      <path id="Path_4" data-name="Path 4" d="M418.87,740.18v8.63h93.9v-8.63H616.51" transform="translate(113.771 -279.579)" fill="none" stroke="#fff" stroke-linecap="round" stroke-width="6.5"/>
      <path id="Path_24" data-name="Path 24" d="M1013.845,0h-1247.1" transform="translate(233.251 482.328)" fill="none" stroke="#fff" stroke-linecap="round" stroke-width="6.5"/>
      <path id="Path_5" data-name="Path 5" d="M930.532,744.6V539.278c0-9.678-10.075-9.678-10.075-9.678H803.036c-10.4,0-8.9,8.557-8.9,8.557V744.6s0,5.318,5.505,5.318H924.183S930.532,748.561,930.532,744.6Z" transform="translate(-46.416 -269.106)" fill="none" stroke="#fff" stroke-linecap="round" stroke-width="6.5"/>
      <path id="Path_6" data-name="Path 6" d="M821.91,883.33" transform="translate(-62.194 -435.652)" fill="none" stroke="#fff" stroke-linecap="round" stroke-width="6.5"/>
      <path id="Path_7" data-name="Path 7" d="M821.91,574.182V415.06H928.333V580.035H821.91Z" transform="translate(-58.889 -126.504)" fill="none" stroke="#fff" stroke-linecap="round" stroke-width="6.5"/>
      <line id="Line_2" data-name="Line 2" x2="30.457" transform="translate(802.901 281.031)" fill="none" stroke="#fff" stroke-linecap="round" stroke-width="4"/>
      <ellipse id="Ellipse_3" data-name="Ellipse 3" cx="2.775" cy="2.667" rx="2.775" ry="2.667" transform="translate(815.354 268.929)" fill="none" stroke="#fff" stroke-linecap="round" stroke-width="6.5"/>
      <ellipse id="Ellipse_4" data-name="Ellipse 4" cx="7.388" cy="7.101" rx="7.388" ry="7.101" transform="translate(805.991 460.601)" fill="none" stroke="#fff" stroke-linecap="round" stroke-width="6.5"/>
      <line id="Line_3" data-name="Line 3" y2="2.836" transform="translate(933.065 477.968)" fill="none" stroke="#384264" stroke-linecap="round" stroke-width="6.5"/>
      <path id="Path_8" data-name="Path 8" d="M1124.143,613.133l-.233-185.7h12.9v185.7" transform="translate(-190.429 -132.328)" fill="none" stroke="#fff" stroke-linecap="round" stroke-width="6.5"/>
      <line id="Line_4" data-name="Line 4" x2="12.899" transform="translate(933.481 454.78)" fill="none" stroke="#fff" stroke-linecap="round" stroke-width="6.5"/>
      <line id="Line_5" data-name="Line 5" x2="12.899" transform="translate(933.481 428.02)" fill="none" stroke="#fff" stroke-linecap="round" stroke-width="6.5"/>
      <line id="Line_6" data-name="Line 6" x2="12.899" transform="translate(933.481 402.085)" fill="none" stroke="#fff" stroke-linecap="round" stroke-width="6.5"/>
      <line id="Line_7" data-name="Line 7" x2="10.709" transform="translate(934.999 376.145)" fill="none" stroke="#fff" stroke-linecap="round" stroke-width="6.5"/>
      <line id="Line_8" data-name="Line 8" x2="12.899" transform="translate(933.481 349.755)" fill="none" stroke="#fff" stroke-linecap="round" stroke-width="6.5"/>
      <line id="Line_9" data-name="Line 9" x2="11.164" transform="translate(934.751 323.264)" fill="none" stroke="#fff" stroke-linecap="round" stroke-width="6.5"/>
      <path id="Path_9" data-name="Path 9" d="M1525.5,615.035V431.12h12.9l.336,179.132v4.782" transform="translate(-358.51 -134.066)" fill="none" stroke="#fff" stroke-linecap="round" stroke-width="6.5"/>
      <line id="Line_10" data-name="Line 10" x2="12.899" transform="translate(1166.99 456.732)" fill="none" stroke="#fff" stroke-linecap="round" stroke-width="6.5"/>
      <line id="Line_11" data-name="Line 11" x2="12.899" transform="translate(1166.99 429.972)" fill="none" stroke="#fff" stroke-linecap="round" stroke-width="6.5"/>
      <line id="Line_12" data-name="Line 12" x2="12.899" transform="translate(1166.99 404.038)" fill="none" stroke="#fff" stroke-linecap="round" stroke-width="6.5"/>
      <line id="Line_13" data-name="Line 13" x2="11.911" transform="translate(1167.313 378.097)" fill="none" stroke="#fff" stroke-linecap="round" stroke-width="6.5"/>
      <line id="Line_14" data-name="Line 14" x2="12.899" transform="translate(1166.99 351.708)" fill="none" stroke="#fff" stroke-linecap="round" stroke-width="6.5"/>
      <line id="Line_15" data-name="Line 15" x2="11.64" transform="translate(1168.262 325.217)" fill="none" stroke="#fff" stroke-linecap="round" stroke-width="6.5"/>
      <line id="Line_16" data-name="Line 16" x2="199.897" transform="translate(966.366 303.299)" fill="none" stroke="#fff" stroke-linecap="round" stroke-width="6.5"/>
      <path id="Path_10" data-name="Path 10" d="M1203.738,469.336V461.92h-36.9v16.409h34.971" transform="translate(-207.888 -148.567)" fill="none" stroke="#fff" stroke-linecap="round" stroke-width="6.5"/>
      <line id="Line_17" data-name="Line 17" y2="6.879" transform="translate(973.211 321.561)" fill="none" stroke="#fff" stroke-linecap="round" stroke-width="6.5"/>
      <path id="Path_11" data-name="Path 11" d="M1204.679,536.917v10.2h-36.9v-16.4h36.9v7.408" transform="translate(-208.288 -180.955)" fill="none" stroke="#fff" stroke-linecap="round" stroke-width="6.5"/>
      <line id="Line_18" data-name="Line 18" y2="6.879" transform="translate(980.352 357.957)" fill="none" stroke="#fff" stroke-linecap="round" stroke-width="6.5"/>
      <path id="Path_12" data-name="Path 12" d="M1204.679,604.8V615h-36.9V598.59h36.9V606" transform="translate(-208.288 -212.915)" fill="none" stroke="#fff" stroke-linecap="round" stroke-width="6.5"/>
      <line id="Line_19" data-name="Line 19" y2="6.879" transform="translate(986.7 393.877)" fill="none" stroke="#fff" stroke-linecap="round" stroke-width="6.5"/>
      <path id="Path_23" data-name="Path 23" d="M45.2,0C64.771,0,82.11,12.093,88.176,29.964s-.512,37.456-16.3,48.545c-1.688,1.2-3.949-1.039-5.988,0-1.454.741-2.789-5.767-4.55-5.105-1.928.726-4.421-1.532-7.109-2.324a39.89,39.89,0,0,0-11.091-1.093c-1.079,0,.227-.936,0-2.6-.463-3.363-1.187-9.575-3.7-9.7-2.72-.14-7.574-4.67-10.5-4.576-4.111.133-9.265-3.46-12.967-2.668-5.114,1.1-7.734,11.4-10.676,10.928-.28-.045.533-3.3,0-3.685C3.1,56.185,0,49.165,0,43.446,0,19.451,20.238,0,45.2,0Z" transform="translate(925.994 19.177)" fill="#ffa000"/>
      <path id="Path_13" data-name="Path 13" d="M1204.679,669.312v10.2h-36.9V663.1h36.9v7.414" transform="translate(-208.288 -243.288)" fill="none" stroke="#fff" stroke-linecap="round" stroke-width="6.5"/>
      <line id="Line_20" data-name="Line 20" y2="6.879" transform="translate(970.342 428.02)" fill="none" stroke="#fff" stroke-linecap="round" stroke-width="6.5"/>
      <path id="Path_14" data-name="Path 14" d="M1204.679,735.392v10.2h-36.9V729.18h36.9v7.408" transform="translate(-208.288 -274.401)" fill="none" stroke="#fff" stroke-linecap="round" stroke-width="6.5"/>
      <line id="Line_21" data-name="Line 21" y2="6.885" transform="translate(974.359 462.982)" fill="none" stroke="#fff" stroke-linecap="round" stroke-width="6.5"/>
      <path id="Path_15" data-name="Path 15" d="M1389.56,470.358V462.95h-36.89v16.409h34.965" transform="translate(-280.833 -149.052)" fill="none" stroke="#fff" stroke-linecap="round" stroke-width="6.5"/>
      <line id="Line_22" data-name="Line 22" y2="6.885" transform="translate(1086.702 322.1)" fill="none" stroke="#fff" stroke-linecap="round" stroke-width="6.5"/>
      <path id="Path_16" data-name="Path 16" d="M1390.5,537.943v10.2h-36.89V531.73h36.89v7.408" transform="translate(-281.256 -181.435)" fill="none" stroke="#fff" stroke-linecap="round" stroke-width="6.5"/>
      <line id="Line_23" data-name="Line 23" y2="6.885" transform="translate(1087.803 358.497)" fill="none" stroke="#fff" stroke-linecap="round" stroke-width="6.5"/>
      <path id="Path_17" data-name="Path 17" d="M1390.5,605.822v10.2h-36.89V599.61h36.89v7.414" transform="translate(-281.256 -213.395)" fill="none" stroke="#fff" stroke-linecap="round" stroke-width="6.5"/>
      <line id="Line_24" data-name="Line 24" y2="6.879" transform="translate(1086.702 394.422)" fill="none" stroke="#fff" stroke-linecap="round" stroke-width="6.5"/>
      <path id="Path_18" data-name="Path 18" d="M1390.5,670.342v10.192h-36.89v-16.4h36.89v7.408" transform="translate(-281.256 -243.773)" fill="none" stroke="#fff" stroke-linecap="round" stroke-width="6.5"/>
      <line id="Line_25" data-name="Line 25" y2="6.879" transform="translate(1092.604 428.56)" fill="none" stroke="#fff" stroke-linecap="round" stroke-width="6.5"/>
      <path id="Path_19" data-name="Path 19" d="M1390.5,736.413v10.2h-36.89V730.2h36.89v7.414" transform="translate(-281.256 -274.88)" fill="none" stroke="#fff" stroke-linecap="round" stroke-width="6.5"/>
      <line id="Line_26" data-name="Line 26" y2="6.879" transform="translate(1087.803 463.527)" fill="none" stroke="#fff" stroke-linecap="round" stroke-width="6.5"/>
      <path id="Path_20" data-name="Path 20" d="M1416.813,475.49v9.775H1413.3" transform="translate(-308.082 -154.956)" fill="none" stroke="#fff" stroke-linecap="round" stroke-width="6.5"/>
      <ellipse id="Ellipse_57" data-name="Ellipse 57" cx="4.355" cy="4.186" rx="4.355" ry="4.186" transform="translate(1117.072 352.851)" fill="#ffa000" stroke="#ffa000" stroke-linecap="round" stroke-width="2"/>
      <ellipse id="Ellipse_58" data-name="Ellipse 58" cx="4.355" cy="4.186" rx="4.355" ry="4.186" transform="translate(1132.641 352.851)" fill="#ffa000" stroke="#ffa000" stroke-linecap="round" stroke-width="2"/>
      <ellipse id="Ellipse_59" data-name="Ellipse 59" cx="4.355" cy="4.186" rx="4.355" ry="4.186" transform="translate(1147.407 352.851)" fill="#ffa000" stroke="#ffa000" stroke-linecap="round" stroke-width="2"/>
      <ellipse id="Ellipse_5" data-name="Ellipse 5" cx="4.355" cy="4.186" rx="4.355" ry="4.186" transform="translate(1014.767 317.787)" fill="#ffa000" stroke="#ffa000" stroke-linecap="round" stroke-width="2"/>
      <ellipse id="Ellipse_36" data-name="Ellipse 36" cx="4.355" cy="4.186" rx="4.355" ry="4.186" transform="translate(1014.767 352.771)" fill="#ffa000" stroke="#ffa000" stroke-linecap="round" stroke-width="2"/>
      <ellipse id="Ellipse_39" data-name="Ellipse 39" cx="4.355" cy="4.186" rx="4.355" ry="4.186" transform="translate(1014.767 390.676)" fill="#ffa000" stroke="#ffa000" stroke-linecap="round" stroke-width="2"/>
      <ellipse id="Ellipse_42" data-name="Ellipse 42" cx="4.355" cy="4.186" rx="4.355" ry="4.186" transform="translate(1014.767 425.707)" fill="#ffa000" stroke="#ffa000" stroke-linecap="round" stroke-width="2"/>
      <ellipse id="Ellipse_45" data-name="Ellipse 45" cx="4.355" cy="4.186" rx="4.355" ry="4.186" transform="translate(1014.767 460.262)" fill="#ffa000" stroke="#ffa000" stroke-linecap="round" stroke-width="2"/>
      <ellipse id="Ellipse_48" data-name="Ellipse 48" cx="4.355" cy="4.186" rx="4.355" ry="4.186" transform="translate(1117.071 460.262)" fill="#ffa000" stroke="#ffa000" stroke-linecap="round" stroke-width="2"/>
      <ellipse id="Ellipse_51" data-name="Ellipse 51" cx="4.355" cy="4.186" rx="4.355" ry="4.186" transform="translate(1117.071 425.707)" fill="#ffa000" stroke="#ffa000" stroke-linecap="round" stroke-width="2"/>
      <ellipse id="Ellipse_54" data-name="Ellipse 54" cx="4.355" cy="4.186" rx="4.355" ry="4.186" transform="translate(1117.071 391.152)" fill="#ffa000" stroke="#ffa000" stroke-linecap="round" stroke-width="2"/>
      <ellipse id="Ellipse_60" data-name="Ellipse 60" cx="4.355" cy="4.186" rx="4.355" ry="4.186" transform="translate(1117.071 318.216)" fill="#ffa000" stroke="#ffa000" stroke-linecap="round" stroke-width="2"/>
      <ellipse id="Ellipse_6" data-name="Ellipse 6" cx="4.355" cy="4.186" rx="4.355" ry="4.186" transform="translate(1030.335 317.787)" fill="#ffa000" stroke="#ffa000" stroke-linecap="round" stroke-width="2"/>
      <ellipse id="Ellipse_37" data-name="Ellipse 37" cx="4.355" cy="4.186" rx="4.355" ry="4.186" transform="translate(1030.335 352.771)" fill="#ffa000" stroke="#ffa000" stroke-linecap="round" stroke-width="2"/>
      <ellipse id="Ellipse_40" data-name="Ellipse 40" cx="4.355" cy="4.186" rx="4.355" ry="4.186" transform="translate(1030.335 390.676)" fill="#ffa000" stroke="#ffa000" stroke-linecap="round" stroke-width="2"/>
      <ellipse id="Ellipse_43" data-name="Ellipse 43" cx="4.355" cy="4.186" rx="4.355" ry="4.186" transform="translate(1030.335 425.707)" fill="#ffa000" stroke="#ffa000" stroke-linecap="round" stroke-width="2"/>
      <ellipse id="Ellipse_46" data-name="Ellipse 46" cx="4.355" cy="4.186" rx="4.355" ry="4.186" transform="translate(1030.335 460.262)" fill="#ffa000" stroke="#ffa000" stroke-linecap="round" stroke-width="2"/>
      <ellipse id="Ellipse_49" data-name="Ellipse 49" cx="4.355" cy="4.186" rx="4.355" ry="4.186" transform="translate(1132.641 460.262)" fill="#ffa000" stroke="#ffa000" stroke-linecap="round" stroke-width="2"/>
      <ellipse id="Ellipse_52" data-name="Ellipse 52" cx="4.355" cy="4.186" rx="4.355" ry="4.186" transform="translate(1132.641 425.707)" fill="#ffa000" stroke="#ffa000" stroke-linecap="round" stroke-width="2"/>
      <ellipse id="Ellipse_55" data-name="Ellipse 55" cx="4.355" cy="4.186" rx="4.355" ry="4.186" transform="translate(1132.641 391.152)" fill="#ffa000" stroke="#ffa000" stroke-linecap="round" stroke-width="2"/>
      <ellipse id="Ellipse_61" data-name="Ellipse 61" cx="4.355" cy="4.186" rx="4.355" ry="4.186" transform="translate(1132.641 318.216)" fill="#ffa000" stroke="#ffa000" stroke-linecap="round" stroke-width="2"/>
      <ellipse id="Ellipse_7" data-name="Ellipse 7" cx="4.355" cy="4.186" rx="4.355" ry="4.186" transform="translate(1045.101 317.787)" fill="#ffa000" stroke="#ffa000" stroke-linecap="round" stroke-width="2"/>
      <ellipse id="Ellipse_38" data-name="Ellipse 38" cx="4.355" cy="4.186" rx="4.355" ry="4.186" transform="translate(1045.101 352.771)" fill="#ffa000" stroke="#ffa000" stroke-linecap="round" stroke-width="2"/>
      <ellipse id="Ellipse_41" data-name="Ellipse 41" cx="4.355" cy="4.186" rx="4.355" ry="4.186" transform="translate(1045.101 390.676)" fill="#ffa000" stroke="#ffa000" stroke-linecap="round" stroke-width="2"/>
      <ellipse id="Ellipse_44" data-name="Ellipse 44" cx="4.355" cy="4.186" rx="4.355" ry="4.186" transform="translate(1045.101 425.707)" fill="#ffa000" stroke="#ffa000" stroke-linecap="round" stroke-width="2"/>
      <ellipse id="Ellipse_47" data-name="Ellipse 47" cx="4.355" cy="4.186" rx="4.355" ry="4.186" transform="translate(1045.101 460.262)" fill="#ffa000" stroke="#ffa000" stroke-linecap="round" stroke-width="2"/>
      <ellipse id="Ellipse_50" data-name="Ellipse 50" cx="4.355" cy="4.186" rx="4.355" ry="4.186" transform="translate(1147.407 460.262)" fill="#ffa000" stroke="#ffa000" stroke-linecap="round" stroke-width="2"/>
      <ellipse id="Ellipse_53" data-name="Ellipse 53" cx="4.355" cy="4.186" rx="4.355" ry="4.186" transform="translate(1147.407 425.707)" fill="#ffa000" stroke="#ffa000" stroke-linecap="round" stroke-width="2"/>
      <ellipse id="Ellipse_56" data-name="Ellipse 56" cx="4.355" cy="4.186" rx="4.355" ry="4.186" transform="translate(1147.407 391.152)" fill="#ffa000" stroke="#ffa000" stroke-linecap="round" stroke-width="2"/>
      <ellipse id="Ellipse_62" data-name="Ellipse 62" cx="4.355" cy="4.186" rx="4.355" ry="4.186" transform="translate(1147.407 318.216)" fill="#ffa000" stroke="#ffa000" stroke-linecap="round" stroke-width="2"/>
      <line id="Line_27" data-name="Line 27" y2="179.029" transform="translate(1063.105 303.299)" stroke="#fff" stroke-linecap="round" stroke-width="6.5"/>
      <line id="Line_28" data-name="Line 28" x2="217.728" transform="translate(949.262 338.282)" stroke="#fff" stroke-linecap="round" stroke-width="6.5"/>
      <line id="Line_29" data-name="Line 29" x2="217.31" transform="translate(949.262 376.187)" stroke="#fff" stroke-linecap="round" stroke-width="6.5"/>
      <line id="Line_30" data-name="Line 30" x2="217.31" transform="translate(949.262 411.218)" stroke="#fff" stroke-linecap="round" stroke-width="6.5"/>
      <line id="Line_31" data-name="Line 31" x2="217.31" transform="translate(949.262 445.773)" stroke="#fff" stroke-linecap="round" stroke-width="6.5"/>
      <path id="Path_22" data-name="Path 22" d="M1218.6,295.3h23.249s2.722-18.616,21.284-11.7c0,0,3.59-13.031,19.378-13.828s24.918,15.422,21.876,20.21c0,0,18.263-2.923,19.645,8.247,0,0,21.375-6.117,24.936,16.495h21.517" transform="translate(-335.051 -198.163)" fill="none" stroke="#fff" stroke-width="6"/>
      <path id="Path_63" data-name="Path 63" d="M1380.634,297h-24.8s-2.9-19.86-22.706-12.484c0,0-3.829-13.9-20.672-14.752s-26.582,16.453-23.338,21.56c0,0-19.482-3.118-20.957,8.8,0,0-22.8-6.525-26.6,17.6H1218.6" transform="translate(-897.356 -183.619)" fill="none" stroke="#fff" stroke-width="6"/>
    </g>
    <g id="_04-GraFa" data-name="04-GraFa" transform="translate(15.961 264.338)">
      <g id="File" transform="translate(0 0)">
        <path id="Path_805" data-name="Path 805" d="M492.6,210.447h64.013a3.634,3.634,0,0,0,0-7.261h-5.294a26.755,26.755,0,0,0-23.086-26.462V57.027a3.627,3.627,0,0,0-7.254,0v119.7A26.754,26.754,0,0,0,497.9,203.186H492.6a3.634,3.634,0,0,0,0,7.261ZM524.609,183.5a19.7,19.7,0,0,1,19.682,19.682H504.927A19.7,19.7,0,0,1,524.609,183.5Z" transform="translate(-427.837 -53.4)" fill="#fff"/>
        <rect id="Rectangle_269" data-name="Rectangle 269" width="97.24" height="7.254" rx="3.627" transform="translate(48.153 164.3)" fill="#fff"/>
        <path id="Path_806" data-name="Path 806" d="M591.168,652.231H525.077l-4.694-253.017,41.15-67.653h2.441a3.627,3.627,0,0,0,3.627-3.627h0a3.627,3.627,0,0,0-3.627-3.627h-7.749v-10.88A3.627,3.627,0,0,0,552.6,309.8H443.446a3.627,3.627,0,0,0-3.627,3.627v10.887h-7.763a3.627,3.627,0,0,0-3.627,3.627h0a3.627,3.627,0,0,0,3.627,3.627H434.5l41.15,67.654-4.694,253.031H404.877a3.627,3.627,0,1,0,0,7.254H591.168a3.627,3.627,0,1,0,0-7.254Zm-94.854-281.92L487.421,355.7l10.615-17.436L508.652,355.7l-8.893,14.612Zm-8.5,0h-9.325l4.645-7.637Zm25.109-7.637,4.624,7.637H508.24Zm13.14,7.637L517.133,355.7l10.608-17.436,10.594,17.478-8.865,14.57Zm-2.741-38.751-10.462,17.164L502.4,331.561Zm-29.726,0-10.462,17.164-10.462-17.164ZM478.912,355.7l-8.893,14.612h-3.445l-8.893-14.647L468.3,338.228Zm46.144,21.893-8.837,14.514H479.826l-8.837-14.514Zm-42.133,21.775h30.2l.139,7.254H482.783Zm59.661-50.58-10.427-17.227H553.08ZM447.108,317.04h101.9V324.3h-101.9Zm16.739,14.521-10.462,17.157-10.462-17.157Zm18.831,82.3h30.688L517.8,652.238H478.221Z" transform="translate(-401.25 -130.972)" fill="#fff"/>
        <path id="Path_807" data-name="Path 807" d="M585.812,821.57H418.422a3.637,3.637,0,1,0,0,7.274h3.055l6.975,29.028h-2.281a3.627,3.627,0,1,0,0,7.254H578.008a3.627,3.627,0,0,0,0-7.254h-2.281l6.975-29.028h3.111a3.634,3.634,0,0,0,0-7.26Zm-23.574,21.775H571.8l-2.727,11.306Zm.3,14.514H548.91l6.807-11.257Zm-20.226-3.118-6.891-11.4H549.2Zm-6.6,3.118h-13.6l6.807-11.257Zm-20.226-3.118-6.891-11.4h13.817Zm-6.591,3.118H495.31l6.807-11.257Zm-20.226-3.118-6.9-11.4h13.789Zm-6.6,3.118H468.514l6.8-11.257Zm-20.226-3.118-6.891-11.4h13.782Zm-6.591,3.118H441.71l6.807-11.257Zm-20.094-3.208-2.72-11.306H442Zm138.376-18.566H430.7l-1.744-7.24H575.281Z" transform="translate(-405.345 -285.803)" fill="#fff"/>
        <path id="Path_808" data-name="Path 808" d="M538.433,657.1a3.606,3.606,0,0,0-3.613,3.606V721.74a3.613,3.613,0,0,0,7.226,0V660.706a3.606,3.606,0,0,0-3.613-3.606Z" transform="translate(-441.66 -236.044)" fill="#fff"/>
        <path id="Path_809" data-name="Path 809" d="M538.433,508.51a3.606,3.606,0,0,0-3.613,3.606v61.035a3.613,3.613,0,0,0,7.226,0V512.116a3.606,3.606,0,0,0-3.613-3.606Z" transform="translate(-441.66 -191.09)" fill="#fff"/>
      </g>
    </g>
  </g>
</svg>
