<svg xmlns="http://www.w3.org/2000/svg" width="84.021" height="84.021" viewBox="0 0 84.021 84.021">
  <g id="notification-svgrepo-com_1_" data-name="notification-svgrepo-com (1)" transform="translate(-3.728 -3.75)">
    <path id="Path_768" data-name="Path 768" d="M41.25,3A56.752,56.752,0,0,0,28.289,4.5,31.923,31.923,0,0,0,4.5,28.289a56.752,56.752,0,0,0,0,25.921A31.923,31.923,0,0,0,28.289,78a56.754,56.754,0,0,0,25.921,0A31.923,31.923,0,0,0,78,54.211,56.744,56.744,0,0,0,79.5,41.25" transform="translate(4.5 4.5)" fill="none" stroke="#363795" stroke-linecap="round" stroke-width="7.5"/>
    <path id="Path_769" data-name="Path 769" d="M4.5,54.211a56.752,56.752,0,0,1,0-25.921A31.923,31.923,0,0,1,28.289,4.5,56.752,56.752,0,0,1,41.25,3M28.289,78a56.754,56.754,0,0,0,25.921,0A31.923,31.923,0,0,0,78,54.211,56.744,56.744,0,0,0,79.5,41.25" transform="translate(4.5 4.5)" fill="none" stroke="#363853" stroke-linecap="round" stroke-width="7.5"/>
    <path id="Path_770" data-name="Path 770" d="M38.5,15.25A11.25,11.25,0,1,1,27.25,4,11.25,11.25,0,0,1,38.5,15.25Z" transform="translate(45.5 3.5)" fill="none" stroke="#363795" stroke-width="7.5"/>
  </g>
</svg>
