<svg xmlns="http://www.w3.org/2000/svg" width="81" height="81" viewBox="0 0 81 81">
  <g id="search-svgrepo-com_5_" data-name="search-svgrepo-com (5)" transform="translate(-2.25 -2.25)">
    <path id="Path_775" data-name="Path 775" d="M32.028,36.434a3.115,3.115,0,0,0,4.406-4.406ZM16.8,21.21,32.028,36.434l4.406-4.406L21.21,16.8Z" transform="translate(45.904 45.903)" fill="#363795"/>
    <path id="Path_776" data-name="Path 776" d="M6.677,50.148l3.033-.712Zm0-22.668,3.033.711Zm64.275,0,3.033-.711Zm0,22.667-3.033-.711Zm-20.8,20.8-.711-3.033Zm-22.667,0-.711,3.033Zm0-64.275-.711-3.033Zm22.667,0,.712-3.033ZM9.71,49.437a46.514,46.514,0,0,1,0-21.245L3.644,26.769a52.744,52.744,0,0,0,0,24.09ZM67.918,28.192a46.508,46.508,0,0,1,0,21.245l6.066,1.423a52.744,52.744,0,0,0,0-24.09ZM49.437,67.918a46.508,46.508,0,0,1-21.245,0l-1.423,6.066a52.744,52.744,0,0,0,24.09,0ZM28.192,9.71a46.514,46.514,0,0,1,21.245,0l1.423-6.066a52.744,52.744,0,0,0-24.09,0Zm0,58.208A24.8,24.8,0,0,1,9.71,49.437L3.644,50.859A31.032,31.032,0,0,0,26.769,73.985Zm22.668,6.066A31.032,31.032,0,0,0,73.985,50.859l-6.066-1.423A24.8,24.8,0,0,1,49.437,67.918ZM49.437,9.71A24.8,24.8,0,0,1,67.918,28.192l6.066-1.423A31.032,31.032,0,0,0,50.859,3.644ZM26.769,3.644A31.032,31.032,0,0,0,3.644,26.769L9.71,28.192A24.8,24.8,0,0,1,28.192,9.71Z" transform="translate(0 0)" fill="#363795"/>
    <path id="Path_777" data-name="Path 777" d="M6.677,50.148l3.033-.712ZM9.71,28.192a3.115,3.115,0,1,0-6.066-1.423Zm61.241-.711,3.033-.711Zm0,22.667-3.033-.711Zm-20.8,20.8-.711-3.033Zm-22.667,0-.711,3.033ZM26.769,3.644A3.115,3.115,0,0,0,28.192,9.71ZM50.148,6.677l.712-3.033ZM9.71,49.437a46.514,46.514,0,0,1,0-21.245L3.644,26.769a52.744,52.744,0,0,0,0,24.09ZM67.918,28.192a46.508,46.508,0,0,1,0,21.245l6.066,1.423a52.744,52.744,0,0,0,0-24.09ZM49.437,67.918a46.508,46.508,0,0,1-21.245,0l-1.423,6.066a52.744,52.744,0,0,0,24.09,0ZM28.192,9.71a46.514,46.514,0,0,1,21.245,0l1.423-6.066a52.744,52.744,0,0,0-24.09,0Zm0,58.208A24.8,24.8,0,0,1,9.71,49.437L3.644,50.859A31.032,31.032,0,0,0,26.769,73.985Zm22.668,6.066A31.032,31.032,0,0,0,73.985,50.859l-6.066-1.423A24.8,24.8,0,0,1,49.437,67.918ZM49.437,9.71A24.8,24.8,0,0,1,67.918,28.192l6.066-1.423A31.032,31.032,0,0,0,50.859,3.644Z" transform="translate(0 0)" fill="#363853"/>
  </g>
</svg>
