<svg xmlns="http://www.w3.org/2000/svg" xmlns:xlink="http://www.w3.org/1999/xlink" width="658.015" height="800.268" viewBox="0 0 658.015 800.268">
  <defs>
    <linearGradient id="linear-gradient" x1="4150.339" y1="0.503" x2="4151.339" y2="0.503" gradientUnits="objectBoundingBox">
      <stop offset="0.1" stop-color="#45108a"/>
      <stop offset="1" stop-color="#7c1dc9"/>
    </linearGradient>
    <linearGradient id="linear-gradient-2" x1="1496.531" y1="0.5" x2="1497.531" y2="0.5" xlink:href="#linear-gradient"/>
    <linearGradient id="linear-gradient-3" x1="597.99" y1="0.507" x2="598.99" y2="0.507" xlink:href="#linear-gradient"/>
    <linearGradient id="linear-gradient-4" x1="1496.531" y1="0.497" x2="1497.531" y2="0.497" xlink:href="#linear-gradient"/>
    <linearGradient id="linear-gradient-5" x1="1401.161" y1="0.497" x2="1402.161" y2="0.497" xlink:href="#linear-gradient"/>
    <linearGradient id="linear-gradient-6" x1="723.638" y1="0.5" x2="724.638" y2="0.5" xlink:href="#linear-gradient"/>
    <linearGradient id="linear-gradient-7" x1="408.333" y1="0.503" x2="409.333" y2="0.503" xlink:href="#linear-gradient"/>
    <linearGradient id="linear-gradient-8" x1="1125.343" y1="0.5" x2="1126.347" y2="0.5" xlink:href="#linear-gradient"/>
    <linearGradient id="linear-gradient-9" x1="390.489" y1="0.5" x2="391.49" y2="0.5" xlink:href="#linear-gradient"/>
    <linearGradient id="linear-gradient-10" x1="992.484" y1="0.5" x2="993.481" y2="0.5" xlink:href="#linear-gradient"/>
    <linearGradient id="linear-gradient-11" x1="1001.691" y1="0.5" x2="1002.686" y2="0.5" xlink:href="#linear-gradient"/>
    <linearGradient id="linear-gradient-12" x1="409.749" y1="0.507" x2="410.749" y2="0.507" xlink:href="#linear-gradient"/>
    <linearGradient id="linear-gradient-13" x1="1001.691" y1="0.497" x2="1002.686" y2="0.497" xlink:href="#linear-gradient"/>
    <linearGradient id="linear-gradient-14" x1="949.345" y1="0.497" x2="950.35" y2="0.497" xlink:href="#linear-gradient"/>
    <linearGradient id="linear-gradient-15" x1="487.41" y1="0.5" x2="488.41" y2="0.5" xlink:href="#linear-gradient"/>
    <linearGradient id="linear-gradient-16" x1="276.601" y1="0.503" x2="277.601" y2="0.503" xlink:href="#linear-gradient"/>
    <linearGradient id="linear-gradient-17" x1="765.211" y1="0.5" x2="766.208" y2="0.5" xlink:href="#linear-gradient"/>
    <linearGradient id="linear-gradient-18" x1="266.857" y1="0.5" x2="267.856" y2="0.5" xlink:href="#linear-gradient"/>
    <linearGradient id="linear-gradient-19" x1="685.098" y1="0.5" x2="686.102" y2="0.5" xlink:href="#linear-gradient"/>
    <linearGradient id="linear-gradient-20" x1="3211.206" y1="0.502" x2="3212.206" y2="0.502" xlink:href="#linear-gradient"/>
    <linearGradient id="linear-gradient-21" x1="1161.947" y1="0.498" x2="1162.951" y2="0.498" xlink:href="#linear-gradient"/>
    <linearGradient id="linear-gradient-22" x1="464.026" y1="0.5" x2="465.026" y2="0.5" xlink:href="#linear-gradient"/>
    <linearGradient id="linear-gradient-23" x1="1161.947" y1="0.502" x2="1162.951" y2="0.502" xlink:href="#linear-gradient"/>
    <linearGradient id="linear-gradient-24" x1="1086.838" y1="0.5" x2="1087.834" y2="0.5" xlink:href="#linear-gradient"/>
    <linearGradient id="linear-gradient-25" x1="561.568" y1="0.5" x2="562.568" y2="0.5" xlink:href="#linear-gradient"/>
    <linearGradient id="linear-gradient-26" x1="316.893" y1="0.503" x2="317.893" y2="0.503" xlink:href="#linear-gradient"/>
    <linearGradient id="linear-gradient-27" x1="871.461" y1="0.5" x2="872.461" y2="0.5" xlink:href="#linear-gradient"/>
    <linearGradient id="linear-gradient-28" x1="302.796" y1="0.501" x2="303.796" y2="0.501" xlink:href="#linear-gradient"/>
    <linearGradient id="linear-gradient-29" x1="770.451" y1="0.5" x2="771.448" y2="0.5" xlink:href="#linear-gradient"/>
    <linearGradient id="linear-gradient-30" x1="769.449" y1="0.498" x2="770.445" y2="0.498" xlink:href="#linear-gradient"/>
    <linearGradient id="linear-gradient-31" x1="315.93" y1="0.5" x2="316.93" y2="0.5" xlink:href="#linear-gradient"/>
    <linearGradient id="linear-gradient-32" x1="769.449" y1="0.502" x2="770.445" y2="0.502" xlink:href="#linear-gradient"/>
    <linearGradient id="linear-gradient-33" x1="724.581" y1="0.5" x2="725.581" y2="0.5" xlink:href="#linear-gradient"/>
    <linearGradient id="linear-gradient-34" x1="373.172" y1="0.5" x2="374.17" y2="0.5" xlink:href="#linear-gradient"/>
    <linearGradient id="linear-gradient-35" x1="212.561" y1="0.503" x2="213.561" y2="0.503" xlink:href="#linear-gradient"/>
    <linearGradient id="linear-gradient-36" x1="590.451" y1="0.5" x2="591.454" y2="0.5" xlink:href="#linear-gradient"/>
    <linearGradient id="linear-gradient-37" x1="205.809" y1="0.501" x2="206.81" y2="0.501" xlink:href="#linear-gradient"/>
    <linearGradient id="linear-gradient-38" x1="528.644" y1="0.5" x2="529.644" y2="0.5" xlink:href="#linear-gradient"/>
  </defs>
  <g id="_3284_Converted_" data-name="3284 [Converted]" transform="translate(-776.957)">
    <g id="Layer_1" data-name="Layer 1" transform="translate(776.957)">
      <path id="Path_810" data-name="Path 810" d="M660,339.489v-18.6h0Z" transform="translate(-1.985 369.069)" fill="#a8cff0"/>
      <path id="Path_813" data-name="Path 813" d="M660,0V689.959h0V0Z" transform="translate(-1.985)" fill="#d1ebff"/>
      <path id="Path_991" data-name="Path 991" d="M497.954,357.31c-19.932,11.5-50.1,12.75-67.364,2.774V373.2c17.2,9.977,47.432,8.73,67.364-2.774Z" transform="translate(-265.839 410.958)" fill="#3f92d1" opacity="0.5"/>
      <path id="Path_992" data-name="Path 992" d="M518.691,414.428,365.6,326.057c-7.461-4.3-11.267-10-11.611-16v12.471c0,6.235,3.935,12.191,11.654,16.642l153.09,88.371Z" transform="translate(-353.94 356.613)" fill="#3f92d1"/>
      <path id="Path_993" data-name="Path 993" d="M518.692,553.42,365.6,465.135c-17.2-9.955-15.051-27.371,4.838-38.9L730.417,218.3c19.953-11.525,50.1-12.772,67.385-2.8l153.09,88.371c17.2,9.977,15.051,27.393-4.838,38.9l-360,207.854C566.124,562.149,535.958,563.4,518.692,553.42Z" transform="translate(-353.941 240.112)" fill="#92b4d1" opacity="0.2"/>
      <path id="Path_994" data-name="Path 994" d="M373.234,416.49,731.856,209.431c14.642-8.429,36.767-9.353,49.453-2.043l149.048,86.006c12.664,7.31,11.073,20.1-3.548,28.532L568.165,528.986c-14.621,8.45-36.767,9.375-49.453,2.15L369.686,445.13C357,437.734,358.677,424.94,373.234,416.49Z" transform="translate(-345.704 232.853)" fill="#022652"/>
      <path id="Path_995" data-name="Path 995" d="M368.266,444.074a36.549,36.549,0,0,1,4.967-3.44L731.855,233.682c14.642-8.429,36.767-9.353,49.453-2.043l149.048,86.006c.495.3.946.6,1.4.924,9.848-8.192,9.654-18.728-1.4-25.114L781.308,207.45c-12.664-7.31-34.789-6.45-49.453,2.043L373.233,416.444C359.192,424.572,357.193,436.656,368.266,444.074Z" transform="translate(-345.704 232.899)" fill="#001a46"/>
      <path id="Path_996" data-name="Path 996" d="M646.913,419.088l167.045-97.681c11.869-6.837,11.8-18-.129-24.877L668.415,212.459c-11.955-6.88-31.242-6.923-43.11,0L458.26,310.14Z" transform="translate(-234.014 238.405)" fill="#92b4d1"/>
      <path id="Path_997" data-name="Path 997" d="M460.35,265.808c-1.29.538-2.516,1.14-3.72,1.763V256.82Z" transform="translate(-235.889 295.38)" fill="#2672ab"/>
      <path id="Path_998" data-name="Path 998" d="M467.276,290.59,462.89,294.7h0Z" transform="translate(-228.689 334.22)" fill="url(#linear-gradient)"/>
      <path id="Path_999" data-name="Path 999" d="M508.641,280.15h0L492.9,278a35.405,35.405,0,0,1-4.472,3.053,44.673,44.673,0,0,1-5.289,2.58l3.827,9.1h0v2.15c.495-.236.989-.495,1.462-.774a35.408,35.408,0,0,0,4.472-3.053V278Z" transform="translate(-205.399 319.74)" fill="#2672ab"/>
      <path id="Path_1000" data-name="Path 1000" d="M474,282.72h0l4.107,3.87Z" transform="translate(-215.911 325.168)" fill="url(#linear-gradient-2)"/>
      <path id="Path_1001" data-name="Path 1001" d="M490.25,284.35l10.278,1.441h0Z" transform="translate(-197.221 327.043)" fill="url(#linear-gradient-3)"/>
      <path id="Path_1002" data-name="Path 1002" d="M474,288.8l4.107,3.849L474,288.8Z" transform="translate(-215.911 332.161)" fill="url(#linear-gradient-4)"/>
      <path id="Path_1003" data-name="Path 1003" d="M474,282.72Z" transform="translate(-215.911 325.168)" fill="#fff"/>
      <path id="Path_1004" data-name="Path 1004" d="M480.3,288.627l-4.386-4.107,4.386,4.107Z" transform="translate(-213.714 327.239)" fill="url(#linear-gradient-5)"/>
      <path id="Path_1005" data-name="Path 1005" d="M482.493,290.7l-4.386-4.107L474,282.72h0v13.073h0l4.107,3.849,4.386,4.107Z" transform="translate(-215.911 325.168)" fill="url(#linear-gradient-6)"/>
      <path id="Path_1006" data-name="Path 1006" d="M482.493,290.7l-4.386-4.107L474,282.72h0v13.073h0l4.107,3.849,4.386,4.107Z" transform="translate(-215.911 325.168)" fill="#2672ab"/>
      <path id="Path_1007" data-name="Path 1007" d="M493.051,284.793A87.32,87.32,0,0,1,478,288.362v13.051h0l.581-.129a86.982,86.982,0,0,0,13.911-3.311l.559-.129V286.9h0v-2.15Z" transform="translate(-211.311 327.503)" fill="url(#linear-gradient-7)"/>
      <path id="Path_1008" data-name="Path 1008" d="M493.051,284.793A87.32,87.32,0,0,1,478,288.362v13.051h0l.581-.129a86.982,86.982,0,0,0,13.911-3.311l.559-.129V286.9h0v-2.15Z" transform="translate(-211.311 327.503)" fill="#3f92d1"/>
      <path id="Path_1009" data-name="Path 1009" d="M487.71,283.99h0l5.461.774-5.461-.774Z" transform="translate(-200.143 326.629)" fill="url(#linear-gradient-8)"/>
      <path id="Path_1010" data-name="Path 1010" d="M503.449,280.135,487.71,277.92v13.051h0l5.461.774,10.278,1.441Z" transform="translate(-200.143 319.648)" fill="url(#linear-gradient-9)"/>
      <path id="Path_1011" data-name="Path 1011" d="M503.449,280.135,487.71,277.92v13.051h0l5.461.774,10.278,1.441Z" transform="translate(-200.143 319.648)" fill="#3f92d1"/>
      <path id="Path_1012" data-name="Path 1012" d="M501.222,274.91h0a29.264,29.264,0,0,1-6.192,8.6h0V296.6h0a29.261,29.261,0,0,0,6.192-8.6V274.953Z" transform="translate(-191.724 316.186)" fill="url(#linear-gradient-10)"/>
      <path id="Path_1013" data-name="Path 1013" d="M501.222,274.91h0a29.264,29.264,0,0,1-6.192,8.6h0V296.6h0a29.261,29.261,0,0,0,6.192-8.6V274.953Z" transform="translate(-191.724 316.186)" fill="#2672ab"/>
      <path id="Path_1014" data-name="Path 1014" d="M491.46,271.509l.108.495a15.05,15.05,0,0,1,0,7.483l7.138,2.537,6.58-2.322V266.65l-13.761,4.859Z" transform="translate(-195.83 306.686)" fill="#2672ab"/>
      <path id="Path_1015" data-name="Path 1015" d="M483.06,265.808c1.29.538,2.516,1.14,3.741,1.763V256.82Z" transform="translate(-205.491 295.38)" fill="#2672ab"/>
      <path id="Path_1016" data-name="Path 1016" d="M560.267,297.514l-13.675-4.838a16.6,16.6,0,0,0,0-7.87l13.675-4.838v-.15h.172a29.261,29.261,0,0,0-6.192-8.6l-15.739,2.15a37.917,37.917,0,0,0-4.472-3.075,48.168,48.168,0,0,0-5.289-2.559l3.827-9.1a87.315,87.315,0,0,0-15.051-3.569h-.365l-8.386,7.913c-2.258-.194-4.537-.28-6.816-.28a55.41,55.41,0,0,0-6.816.28l-8.364-7.913h-.258a86.365,86.365,0,0,0-15.051,3.569l3.806,9.1a52.241,52.241,0,0,0-5.289,2.559,35.916,35.916,0,0,0-4.451,3.075l-15.761-2.15a28.79,28.79,0,0,0-6.171,8.6h.172v.15l13.7,4.838a15.911,15.911,0,0,0,0,7.87l-13.7,4.838a.931.931,0,0,1,0,.15H443.6a28.791,28.791,0,0,0,6.171,8.6l15.761-2.15a33.659,33.659,0,0,0,4.451,3.053,48.176,48.176,0,0,0,5.289,2.58l-3.806,9.1a86.378,86.378,0,0,0,15.051,3.569v-.108h.258l8.364-7.891c2.15.193,4.537.279,6.816.279a55.95,55.95,0,0,0,6.837-.279l8.364,7.891h.258l.107.108a87.318,87.318,0,0,0,15.051-3.569l-3.827-9.1a44.666,44.666,0,0,0,5.289-2.58,35.4,35.4,0,0,0,4.472-3.053l15.739,2.15a29.262,29.262,0,0,0,6.193-8.6h-.172Zm-42.745.236a34.187,34.187,0,0,1-31.263,0c-4.3-2.494-6.45-5.741-6.45-9.009s2.15-6.45,6.45-9.031a34.4,34.4,0,0,1,31.263,0c4.3,2.494,6.45,5.762,6.45,9.031s-2.107,6.515-6.407,9.009Z" transform="translate(-250.875 293.367)" fill="#72b5e8"/>
      <path id="Path_1017" data-name="Path 1017" d="M446.39,280.15h0L462.15,278a33.66,33.66,0,0,0,4.451,3.053,48.139,48.139,0,0,0,5.289,2.58l-3.806,9.1h0v2.15c-.495-.236-1.011-.495-1.484-.774a33.652,33.652,0,0,1-4.451-3.053V278Z" transform="translate(-247.666 319.74)" fill="#3f92d1"/>
      <path id="Path_1018" data-name="Path 1018" d="M481.277,282.73h0c-2.258.215-4.515.3-6.795.323a64.36,64.36,0,0,1-6.773-.323h-.28v13.051c2.344.215,4.687.3,7.052.3a54.941,54.941,0,0,0,7.052-.3V282.73Z" transform="translate(-223.467 325.18)" fill="#3f92d1"/>
      <path id="Path_1019" data-name="Path 1019" d="M469.638,282.72h0l-4.128,3.87Z" transform="translate(-225.676 325.168)" fill="url(#linear-gradient-11)"/>
      <path id="Path_1020" data-name="Path 1020" d="M456.668,284.35l-10.278,1.441h0Z" transform="translate(-247.666 327.043)" fill="url(#linear-gradient-12)"/>
      <path id="Path_1021" data-name="Path 1021" d="M469.638,288.8l-4.128,3.849,4.128-3.849Z" transform="translate(-225.676 332.161)" fill="url(#linear-gradient-13)"/>
      <path id="Path_1022" data-name="Path 1022" d="M467.43,282.72Z" transform="translate(-223.468 325.168)" fill="#fff"/>
      <path id="Path_1023" data-name="Path 1023" d="M463.48,288.627l4.365-4.107-4.365,4.107Z" transform="translate(-228.011 327.239)" fill="url(#linear-gradient-14)"/>
      <path id="Path_1024" data-name="Path 1024" d="M463.48,290.7l4.365-4.107,4.128-3.87h0v13.073h0l-4.128,3.849-4.365,4.107Z" transform="translate(-228.011 325.168)" fill="url(#linear-gradient-15)"/>
      <path id="Path_1025" data-name="Path 1025" d="M463.48,290.7l4.365-4.107,4.128-3.87h0v13.073h0l-4.128,3.849-4.365,4.107Z" transform="translate(-228.011 325.168)" fill="#2672ab"/>
      <path id="Path_1026" data-name="Path 1026" d="M456.48,284.793a86.372,86.372,0,0,0,15.051,3.569v13.051h0l-.6-.129a87.53,87.53,0,0,1-13.911-3.311l-.538-.129V286.9h0v-2.15Z" transform="translate(-236.062 327.503)" fill="url(#linear-gradient-16)"/>
      <path id="Path_1027" data-name="Path 1027" d="M456.48,284.793a86.372,86.372,0,0,0,15.051,3.569v13.051h0l-.6-.129a87.53,87.53,0,0,1-13.911-3.311l-.538-.129V286.9h0v-2.15Z" transform="translate(-236.062 327.503)" fill="#3f92d1"/>
      <path id="Path_1028" data-name="Path 1028" d="M456.653,283.99h0l-5.483.774,5.483-.774Z" transform="translate(-242.169 326.629)" fill="url(#linear-gradient-17)"/>
      <path id="Path_1029" data-name="Path 1029" d="M446.39,280.135l15.76-2.215v13.051h0l-5.483.774-10.278,1.441Z" transform="translate(-247.666 319.648)" fill="url(#linear-gradient-18)"/>
      <path id="Path_1030" data-name="Path 1030" d="M446.39,280.135l15.76-2.215v13.051h0l-5.483.774-10.278,1.441Z" transform="translate(-247.666 319.648)" fill="#2672ab"/>
      <path id="Path_1031" data-name="Path 1031" d="M443.52,274.91h0a28.789,28.789,0,0,0,6.171,8.6h0V296.6h0a28.789,28.789,0,0,1-6.171-8.6V274.953Z" transform="translate(-250.968 316.186)" fill="url(#linear-gradient-19)"/>
      <path id="Path_1032" data-name="Path 1032" d="M443.52,274.91h0a28.789,28.789,0,0,0,6.171,8.6h0V296.6h0a28.789,28.789,0,0,1-6.171-8.6V274.953Z" transform="translate(-250.968 316.186)" fill="#3f92d1"/>
      <path id="Path_1033" data-name="Path 1033" d="M457.338,271.509V272a15.2,15.2,0,0,0,0,7.483l-7.139,2.537L443.62,279.7V266.65l13.761,4.859Z" transform="translate(-250.852 306.686)" fill="#2672ab"/>
      <path id="Path_1034" data-name="Path 1034" d="M498.265,268.5a35.069,35.069,0,0,0-31.435,0c-4.3,2.473-6.45,5.741-6.45,9.009a9.009,9.009,0,0,0,3.1,6.665,15.953,15.953,0,0,1,3.4-2.559,34.188,34.188,0,0,1,31.263,0,16.685,16.685,0,0,1,3.419,2.559,9.181,9.181,0,0,0,3.1-6.665C504.716,274.24,502.566,270.972,498.265,268.5Z" transform="translate(-231.576 304.535)" fill="#2672ab"/>
      <path id="Path_1035" data-name="Path 1035" d="M474.23,262.083l7.354-6.923h0L474.23,262.1Z" transform="translate(-215.647 293.47)" fill="#a8cff0"/>
      <path id="Path_1036" data-name="Path 1036" d="M491.9,271.422l12.514-4.408v-.151h.172a2.533,2.533,0,0,1-.172-.344l-12.535,4.429a4.671,4.671,0,0,1,.021.473Z" transform="translate(-195.347 306.536)" fill="#a8cff0"/>
      <path id="Path_1037" data-name="Path 1037" d="M499.311,284.552a9.762,9.762,0,0,0,4.107-7.332c0-3.268-2.15-6.45-6.45-9.031a34.4,34.4,0,0,0-31.263,0,17.2,17.2,0,0,0-3.5,2.666,19.357,19.357,0,0,1,2.43-1.7,34.4,34.4,0,0,1,31.263,0c4.3,2.494,6.451,5.762,6.451,9.031a9.181,9.181,0,0,1-3.032,6.364Z" transform="translate(-229.483 304.136)" fill="#a8cff0"/>
      <path id="Path_1038" data-name="Path 1038" d="M460.912,265.171l-3.591-8.6c-.43.129-.3.323-.731.452l3.075,8.6Z" transform="translate(-235.935 295.092)" fill="#a8cff0"/>
      <path id="Path_1039" data-name="Path 1039" d="M443.5,271.466l13.7,4.838a15.3,15.3,0,0,0-.495,3.935,16.25,16.25,0,0,0,.387,3.376l1.183-.409a15.415,15.415,0,0,1-.495-3.935,16.4,16.4,0,0,1,.473-3.935L444.577,270.5a.533.533,0,0,1,0-.15h-.194a28.748,28.748,0,0,1,5.268-7.7H449.5a28.791,28.791,0,0,0-6.171,8.6h.172Z" transform="translate(-251.186 302.085)" fill="#a8cff0"/>
      <path id="Path_1040" data-name="Path 1040" d="M493.258,277.57a35.406,35.406,0,0,1-4.429,3.075,44.663,44.663,0,0,1-5.289,2.58l.172.409a41.669,41.669,0,0,0,4.042-2.021,35.406,35.406,0,0,0,4.472-3.053l15.739,2.15c.344-.322.624-.667.925-.989Z" transform="translate(-204.939 319.245)" fill="#a8cff0"/>
      <path id="Path_1041" data-name="Path 1041" d="M490.825,290.358l-.107-.108h-.258l-8.386-7.891c-2.258.193-4.537.279-6.816.279a55.428,55.428,0,0,1-6.816-.279l-1.032.968c2.15.193,4.515.28,6.773.28a56.119,56.119,0,0,0,6.837-.28l8.364,7.891h.366a87.331,87.331,0,0,0,15.051-3.569l-.237-.559A88.747,88.747,0,0,1,490.825,290.358Z" transform="translate(-223.49 324.754)" fill="#a8cff0"/>
      <path id="Path_1042" data-name="Path 1042" d="M487.436,299.043v.107a87.088,87.088,0,0,1-15.051-3.569l3.827-9.1a46.327,46.327,0,0,1-5.289-2.58,33.641,33.641,0,0,1-4.451-3.053L450.712,283a29.435,29.435,0,0,1-6-8.342l-1.161.408a.931.931,0,0,1,0,.15h-.172a28.792,28.792,0,0,0,6.171,8.6l15.761-2.15a33.631,33.631,0,0,0,4.451,3.053,48.16,48.16,0,0,0,5.289,2.58l-3.806,9.1a86.372,86.372,0,0,0,15.051,3.569h.366l1.032-.968Z" transform="translate(-251.128 315.898)" fill="#a8cff0"/>
      <path id="Path_1043" data-name="Path 1043" d="M469.925,298.827c-1.655.71-3.247,1.462-4.795,2.258V287.13Z" transform="translate(-226.113 330.241)" fill="#2672ab"/>
      <path id="Path_1044" data-name="Path 1044" d="M478.855,330.74l-5.655,5.311h0Z" transform="translate(-216.831 380.398)" fill="url(#linear-gradient-20)"/>
      <path id="Path_1045" data-name="Path 1045" d="M532.184,317.258h0l-20.3-2.838a45.476,45.476,0,0,1-5.741,3.935,62.567,62.567,0,0,1-6.816,3.333l4.924,11.718h0v2.774l1.892-.989a50.547,50.547,0,0,0,5.741-3.935V314.42Z" transform="translate(-186.778 361.628)" fill="#2672ab"/>
      <path id="Path_1046" data-name="Path 1046" d="M487.51,320.61h0l5.289,4.967Z" transform="translate(-200.373 368.747)" fill="url(#linear-gradient-21)"/>
      <path id="Path_1047" data-name="Path 1047" d="M508.45,322.71l13.245,1.849h0Z" transform="translate(-176.289 371.163)" fill="url(#linear-gradient-22)"/>
      <path id="Path_1048" data-name="Path 1048" d="M487.51,328.43,492.8,333.4l-5.289-4.967Z" transform="translate(-200.373 377.741)" fill="url(#linear-gradient-23)"/>
      <path id="Path_1049" data-name="Path 1049" d="M487.51,320.61Z" transform="translate(-200.373 368.747)" fill="#fff"/>
      <path id="Path_1050" data-name="Path 1050" d="M495.625,328.209l-5.655-5.289,5.655,5.289Z" transform="translate(-197.543 371.404)" fill="url(#linear-gradient-24)"/>
      <path id="Path_1051" data-name="Path 1051" d="M498.454,330.866l-5.655-5.289-5.289-4.967h0v16.814h0l5.289,4.967,5.655,5.311Z" transform="translate(-200.373 368.747)" fill="url(#linear-gradient-25)"/>
      <path id="Path_1052" data-name="Path 1052" d="M498.454,330.866l-5.655-5.289-5.289-4.967h0v16.814h0l5.289,4.967,5.655,5.311Z" transform="translate(-200.373 368.747)" fill="#2672ab"/>
      <path id="Path_1053" data-name="Path 1053" d="M511.971,323.3a114.954,114.954,0,0,1-19.351,4.6v16.814h0l.774-.172a113.952,113.952,0,0,0,17.911-4.3l.709-.15v-14.1h0V323.21Z" transform="translate(-194.495 371.738)" fill="url(#linear-gradient-26)"/>
      <path id="Path_1054" data-name="Path 1054" d="M511.971,323.3a114.954,114.954,0,0,1-19.351,4.6v16.814h0l.774-.172a113.952,113.952,0,0,0,17.911-4.3l.709-.15v-14.1h0V323.21Z" transform="translate(-194.495 371.738)" fill="#3f92d1"/>
      <path id="Path_1055" data-name="Path 1055" d="M505.17,322.25h0l7.052.989-7.052-.989Z" transform="translate(-180.061 370.634)" fill="url(#linear-gradient-27)"/>
      <path id="Path_1056" data-name="Path 1056" d="M525.467,317.258l-20.3-2.838v16.836h0l7.052.989,13.245,1.849Z" transform="translate(-180.061 361.628)" fill="url(#linear-gradient-28)"/>
      <path id="Path_1057" data-name="Path 1057" d="M525.467,317.258l-20.3-2.838v16.836h0l7.052.989,13.245,1.849Z" transform="translate(-180.061 361.628)" fill="#3f92d1"/>
      <path id="Path_1058" data-name="Path 1058" d="M522.587,310.54h0a37.13,37.13,0,0,1-7.977,11.181h0v16.836h0a37.218,37.218,0,0,0,7.977-11.2Z" transform="translate(-169.204 357.165)" fill="url(#linear-gradient-29)"/>
      <path id="Path_1059" data-name="Path 1059" d="M522.587,310.54h0a37.13,37.13,0,0,1-7.977,11.181h0v16.836h0a37.218,37.218,0,0,0,7.977-11.2Z" transform="translate(-169.204 357.165)" fill="#2672ab"/>
      <path id="Path_1060" data-name="Path 1060" d="M510,306.157l.129.645a19.823,19.823,0,0,1,0,9.654l9.181,3.247,8.6-2.989V299.9Z" transform="translate(-174.506 344.928)" fill="#2672ab"/>
      <path id="Path_1061" data-name="Path 1061" d="M499.19,298.827c1.656.71,3.247,1.462,4.795,2.258V287.13Z" transform="translate(-186.939 330.241)" fill="#2672ab"/>
      <path id="Path_1062" data-name="Path 1062" d="M598.644,339.681l-17.631-6.235a20.164,20.164,0,0,0,.6-5.053,19.653,19.653,0,0,0-.6-5.1l17.631-6.214v-.193h.237a37.479,37.479,0,0,0-7.977-11.2l-20.3,2.86a45.5,45.5,0,0,0-5.741-3.935,62.57,62.57,0,0,0-6.816-3.333l4.924-11.718a114.46,114.46,0,0,0-19.351-4.6l-.151.129h-.323L532.4,295.259c-2.9-.236-5.848-.366-8.773-.344s-5.891.108-8.794.344l-10.751-10.17h-.323l-.15-.129a114.951,114.951,0,0,0-19.351,4.6l4.924,11.718a62.558,62.558,0,0,0-6.816,3.333,47.1,47.1,0,0,0-5.741,3.935l-20.3-2.86a37.778,37.778,0,0,0-7.956,11.2h.215a.873.873,0,0,1,0,.193l17.631,6.214a20.616,20.616,0,0,0-.6,5.1,20.172,20.172,0,0,0,.6,5.053l-17.631,6.235a.884.884,0,0,1,0,.194h-.215a37.413,37.413,0,0,0,7.956,11.181l20.3-2.838a47.116,47.116,0,0,0,5.741,3.935,62.571,62.571,0,0,0,6.816,3.333L484.256,367.2a114.953,114.953,0,0,0,19.351,4.6l.15-.15h.323l10.751-10.17c2.9.237,5.848.366,8.794.344a79.959,79.959,0,0,0,8.794-.344l10.751,10.17h.323l.151.151a114.948,114.948,0,0,0,19.351-4.6l-4.924-11.718a62.575,62.575,0,0,0,6.816-3.333,45.5,45.5,0,0,0,5.741-3.935l20.3,2.838a37.135,37.135,0,0,0,7.977-11.181h-.237a.877.877,0,0,0-.021-.193ZM543.557,340a44.143,44.143,0,0,1-40.272,0c-5.569-3.2-8.364-7.418-8.428-11.611s2.86-8.407,8.428-11.632a44.142,44.142,0,0,1,40.272,0c5.569,3.225,8.386,7.418,8.429,11.632S549.126,336.8,543.557,340Z" transform="translate(-245.389 327.745)" fill="#72b5e8"/>
      <path id="Path_1063" data-name="Path 1063" d="M451.94,317.258h0l20.3-2.838a47.111,47.111,0,0,0,5.741,3.935,62.56,62.56,0,0,0,6.816,3.333l-4.924,11.718h0v2.774l-1.892-.989a52.522,52.522,0,0,1-5.741-3.935V314.42Z" transform="translate(-241.283 361.628)" fill="#3f92d1"/>
      <path id="Path_1064" data-name="Path 1064" d="M496.875,320.62h0c-2.9.258-5.827.409-8.73.409s-5.848-.151-8.751-.409h-.344v16.814q4.515.387,9.1.387t9.1-.387V320.62Z" transform="translate(-210.103 368.759)" fill="#3f92d1"/>
      <path id="Path_1065" data-name="Path 1065" d="M481.891,320.61h0l-5.311,4.967Z" transform="translate(-212.944 368.747)" fill="url(#linear-gradient-30)"/>
      <path id="Path_1066" data-name="Path 1066" d="M465.185,322.71l-13.245,1.849h0Z" transform="translate(-241.283 371.163)" fill="url(#linear-gradient-31)"/>
      <path id="Path_1067" data-name="Path 1067" d="M481.891,328.43,476.58,333.4l5.311-4.967Z" transform="translate(-212.944 377.741)" fill="url(#linear-gradient-32)"/>
      <path id="Path_1068" data-name="Path 1068" d="M479.05,320.61Z" transform="translate(-210.103 368.747)" fill="#fff"/>
      <path id="Path_1069" data-name="Path 1069" d="M473.95,328.209l5.655-5.289-5.655,5.289Z" transform="translate(-215.969 371.404)" fill="url(#linear-gradient-33)"/>
      <path id="Path_1070" data-name="Path 1070" d="M473.95,330.866l5.655-5.289,5.311-4.967h0v16.814h0l-5.311,4.967L473.95,347.7Z" transform="translate(-215.969 368.747)" fill="url(#linear-gradient-34)"/>
      <path id="Path_1071" data-name="Path 1071" d="M473.95,330.866l5.655-5.289,5.311-4.967h0v16.814h0l-5.311,4.967L473.95,347.7Z" transform="translate(-215.969 368.747)" fill="#2672ab"/>
      <path id="Path_1072" data-name="Path 1072" d="M464.953,323.3a114.953,114.953,0,0,0,19.351,4.6v16.814h0l-.753-.172a113.627,113.627,0,0,1-17.932-4.3l-.71-.15v-14.1h0V323.21Z" transform="translate(-226.366 371.738)" fill="url(#linear-gradient-35)"/>
      <path id="Path_1073" data-name="Path 1073" d="M464.953,323.3a114.953,114.953,0,0,0,19.351,4.6v16.814h0l-.753-.172a113.627,113.627,0,0,1-17.932-4.3l-.71-.15v-14.1h0V323.21Z" transform="translate(-226.366 371.738)" fill="#3f92d1"/>
      <path id="Path_1074" data-name="Path 1074" d="M465.152,322.25h0l-7.052.989,7.052-.989Z" transform="translate(-234.198 370.634)" fill="url(#linear-gradient-36)"/>
      <path id="Path_1075" data-name="Path 1075" d="M451.94,317.258l20.3-2.838v16.836h0l-7.052.989-13.245,1.849Z" transform="translate(-241.283 361.628)" fill="url(#linear-gradient-37)"/>
      <path id="Path_1076" data-name="Path 1076" d="M451.94,317.258l20.3-2.838v16.836h0l-7.052.989-13.245,1.849Z" transform="translate(-241.283 361.628)" fill="#2672ab"/>
      <path id="Path_1077" data-name="Path 1077" d="M448.24,310.54h0a37.413,37.413,0,0,0,7.956,11.181h0v16.836h0a37.5,37.5,0,0,1-7.956-11.2Z" transform="translate(-245.539 357.165)" fill="url(#linear-gradient-38)"/>
      <path id="Path_1078" data-name="Path 1078" d="M448.24,310.54h0a37.413,37.413,0,0,0,7.956,11.181h0v16.836h0a37.5,37.5,0,0,1-7.956-11.2Z" transform="translate(-245.539 357.165)" fill="#3f92d1"/>
      <path id="Path_1079" data-name="Path 1079" d="M466.063,306.157l-.129.645a19.566,19.566,0,0,0,0,9.654l-9.181,3.247-8.493-2.989V299.9L466,306.157Z" transform="translate(-245.516 344.928)" fill="#2672ab"/>
      <path id="Path_1080" data-name="Path 1080" d="M518.8,302.263a45.411,45.411,0,0,0-40.53,0c-5.547,3.2-8.278,7.418-8.256,11.611a11.782,11.782,0,0,0,3.978,8.6,22.683,22.683,0,0,1,4.408-3.311,44.142,44.142,0,0,1,40.272,0,22.039,22.039,0,0,1,4.408,3.311,11.783,11.783,0,0,0,3.978-8.6C527.075,309.681,524.344,305.467,518.8,302.263Z" transform="translate(-220.5 342.156)" fill="#2672ab"/>
      <path id="Path_1081" data-name="Path 1081" d="M487.81,294.013l9.461-8.923h0Z" transform="translate(-200.028 327.894)" fill="#a8cff0"/>
      <path id="Path_1082" data-name="Path 1082" d="M510.639,306.051l16.126-5.676a.878.878,0,0,1-.107-.194h.215l-.215-.452-16.148,5.7A3.5,3.5,0,0,1,510.639,306.051Z" transform="translate(-173.919 344.732)" fill="#a8cff0"/>
      <path id="Path_1083" data-name="Path 1083" d="M520.187,322.971a12.622,12.622,0,0,0,5.289-9.439c0-4.3-2.86-8.429-8.429-11.632a44.142,44.142,0,0,0-40.272,0,21.243,21.243,0,0,0-4.515,3.419,20.694,20.694,0,0,1,3.139-2.15,43.971,43.971,0,0,1,40.272,0c5.569,3.2,8.364,7.418,8.407,11.632A11.826,11.826,0,0,1,520.187,322.971Z" transform="translate(-217.912 341.638)" fill="#a8cff0"/>
      <path id="Path_1084" data-name="Path 1084" d="M470.649,297.88,466.026,287c-.559.172-.409.409-.946.6l3.978,11.116Z" transform="translate(-226.17 330.091)" fill="#a8cff0"/>
      <path id="Path_1085" data-name="Path 1085" d="M448.169,306.1,465.8,312.31a19.649,19.649,0,0,0-.6,5.1,18.661,18.661,0,0,0,.473,4.3l1.505-.538a20.168,20.168,0,0,1-.6-5.053,20.62,20.62,0,0,1,.6-5.1l-17.631-6.214a.883.883,0,0,0,.108-.193h-.215a36.186,36.186,0,0,1,6.773-9.912H456a37.779,37.779,0,0,0-7.956,11.2h.237a.882.882,0,0,0-.107.194Z" transform="translate(-245.769 338.947)" fill="#a8cff0"/>
      <path id="Path_1086" data-name="Path 1086" d="M512.279,314a45.487,45.487,0,0,1-5.633,3.87,62.574,62.574,0,0,1-6.816,3.333l.215.516a56.285,56.285,0,0,0,5.225-2.6,47.114,47.114,0,0,0,5.741-3.935l20.3,2.838c.43-.409.8-.839,1.182-1.269Z" transform="translate(-186.203 361.145)" fill="#a8cff0"/>
      <path id="Path_1087" data-name="Path 1087" d="M509.175,330.439l-.151-.129H508.7l-10.751-10.17c-2.924.237-5.87.366-8.794.344s-5.891-.108-8.794-.344l-1.333,1.247c2.9.237,5.827.344,8.73.344s5.891-.107,8.794-.344l10.751,10.17h.323l.151.129a112.173,112.173,0,0,0,19.351-4.58l-.3-.731a113.955,113.955,0,0,1-17.653,4.064Z" transform="translate(-210.126 368.207)" fill="#a8cff0"/>
      <path id="Path_1088" data-name="Path 1088" d="M504.9,341.639l-.151.129a112.881,112.881,0,0,1-19.351-4.58l4.924-11.718a62.574,62.574,0,0,1-6.816-3.333,47.116,47.116,0,0,1-5.741-3.935l-20.3,2.838a37.262,37.262,0,0,1-7.741-10.751l-1.484.538a.891.891,0,0,0,0,.193h-.237a37.392,37.392,0,0,0,7.977,11.181l20.3-2.838a44.006,44.006,0,0,0,5.741,3.935,58.769,58.769,0,0,0,6.816,3.311l-4.924,11.74a112.415,112.415,0,0,0,19.351,4.58l.129-.129h.344l1.333-1.247Z" transform="translate(-245.803 356.878)" fill="#a8cff0"/>
      <path id="Path_1089" data-name="Path 1089" d="M950.918,293.427l-153.09-88.392c-17.2-9.955-47.432-8.708-67.386,2.8L370.465,415.684c-19.953,11.5-22.1,28.919-4.838,38.9l153.09,88.371c17.2,9.977,47.432,8.729,67.364-2.774l360-207.854C966.012,320.82,968.184,303.4,950.918,293.427Zm-15.868,33.22L576.406,533.706c-14.621,8.45-36.767,9.375-49.453,2.15L377.926,449.85c-12.686-7.31-11.095-20.1,3.548-28.554L740.1,214.238c14.642-8.429,36.767-9.353,49.453-2.043L938.6,298.2C951.262,305.511,949.628,318.3,935.05,326.647Z" transform="translate(-353.967 228.09)" fill="#d1ebff"/>
      <path id="Path_1090" data-name="Path 1090" d="M962.5,251a5.89,5.89,0,0,0-.279-1.871c1.526,8.429-3.978,17.717-16.212,24.791L586.055,481.732c-19.932,11.5-50.1,12.75-67.364,2.774L365.6,396.135c-7.461-4.3-11.267-10-11.611-16v12.471c0,6.235,3.935,12.191,11.654,16.642l153.09,88.371c17.2,9.977,47.432,8.73,67.364-2.774l360-207.854c10.256-5.913,15.8-13.417,16.427-20.641C962.5,265.815,962.5,251.5,962.5,251Z" transform="translate(-353.94 286.535)" fill="#363795"/>
      <path id="Path_1091" data-name="Path 1091" d="M365.625,393.4l153.09,88.371c17.2,9.977,47.432,8.73,67.364-2.8l360-207.833c10.493-6.063,16.062-13.761,16.449-21.136.451,7.891-5.139,16.32-16.449,22.856l-360,207.854c-19.932,11.5-50.1,12.75-67.364,2.774l-153.09-88.371c-8.192-4.73-12-11.116-11.632-17.76C354.315,383.3,358.143,389.081,365.625,393.4Z" transform="translate(-353.964 287.547)" fill="#a8cff0"/>
      <path id="Path_1092" data-name="Path 1092" d="M927.009,294.5,777.962,208.495a40.617,40.617,0,0,0-19.846-4.515,54.483,54.483,0,0,0-26.361,6.515l-163.54,94.434L756.052,414.113l167.41-96.649c6.665-3.87,10.493-8.73,10.493-13.374S930.17,296.328,927.009,294.5ZM373.133,417.553c-6.665,3.849-10.493,8.73-10.493,13.352s3.763,7.783,6.945,9.611l149.026,86.006a40.638,40.638,0,0,0,19.867,4.494,54.1,54.1,0,0,0,26.339-6.45l79.663-45.992L456.666,369.39Z" transform="translate(-343.991 234.585)" fill="#363795"/>
      <path id="Path_1093" data-name="Path 1093" d="M458.353,250.92,646.19,360.1v1.548L458.16,252.511Z" transform="translate(-234.129 288.594)" fill="#2672ab"/>
      <path id="Path_1094" data-name="Path 1094" d="M524.661,256.183l37.047,21.394c10.235,5.913,28.124,5.182,39.928-1.656l30.876-17.8c11.8-6.816,13.094-17.2,2.86-23.05l-37.047-21.5c-10.235-5.913-28.124-5.182-39.95,1.656l-30.854,17.8C515.8,239.971,514.512,250.292,524.661,256.183Z" transform="translate(-165.515 241.038)" fill="#084c94"/>
      <path id="Path_1095" data-name="Path 1095" d="M676.315,258.685l-37.047-21.5c-10.235-5.913-28.1-5.16-39.928,1.656l-30.854,17.825c-11.826,6.816-13.116,17.2-2.881,23.05l37.068,21.394c10.235,5.913,28.1,5.16,39.928-1.656l30.854-17.825C685.281,274.918,686.549,264.6,676.315,258.685Z" transform="translate(-118.496 268.208)" fill="#084c94"/>
      <path id="Path_1096" data-name="Path 1096" d="M483.924,279.683l37.047,21.394c10.235,5.913,28.1,5.182,39.928-1.656l30.854-17.8c11.826-6.816,13.116-17.2,2.881-23.049l-37.068-21.5c-10.235-5.913-28.1-5.182-39.928,1.656l-30.854,17.846C474.872,263.471,473.69,273.77,483.924,279.683Z" transform="translate(-212.483 268.066)" fill="#005c97"/>
      <path id="Path_1097" data-name="Path 1097" d="M635.486,282.127l-37.047-21.394c-10.235-5.913-28.124-5.16-39.928,1.656l-30.876,17.825c-11.8,6.816-13.094,17.2-2.86,23.05l37.047,21.394c10.235,5.913,28.124,5.16,39.95-1.656l30.854-17.825C644.43,298.361,645.721,288.04,635.486,282.127Z" transform="translate(-165.457 295.294)" fill="#005c97"/>
      <path id="Path_1098" data-name="Path 1098" d="M492.916,317.011l-37.047-21.394c-10.235-5.913-28.124-5.182-39.95,1.656l-30.855,17.8c-11.8,6.837-13.094,17.2-2.86,23.05l37.047,21.394c10.235,5.913,28.124,5.182,39.928-1.656l30.876-17.8C501.925,333.288,503.215,322.9,492.916,317.011Z" transform="translate(-329.433 335.407)" fill="#005c97"/>
      <path id="Path_1099" data-name="Path 1099" d="M533.815,340.627l-37.047-21.394c-10.235-5.913-28.1-5.16-39.928,1.656l-30.855,17.825c-11.826,6.816-13.116,17.2-2.881,23.05l37.068,21.394c10.235,5.913,28.1,5.16,39.928-1.656l30.854-17.825C542.781,356.861,544.05,346.54,533.815,340.627Z" transform="translate(-282.392 362.577)" fill="#005c97"/>
      <path id="Path_1100" data-name="Path 1100" d="M527.581,238.989l30.855-17.8c11.826-6.837,29.715-7.569,39.95-1.656l37.047,21.5a13.288,13.288,0,0,1,6.45,7.117c1.527-4.816-.537-9.654-6.45-13.03l-37.047-21.5c-10.235-5.913-28.124-5.182-39.95,1.656l-30.855,17.8c-7.869,4.537-11.03,10.643-9.267,15.933A19.115,19.115,0,0,1,527.581,238.989Z" transform="translate(-165.49 241.095)" fill="#001a46"/>
      <path id="Path_1101" data-name="Path 1101" d="M559.183,272.646a19.093,19.093,0,0,1,9.289-10.02L599.326,244.8c11.826-6.816,29.694-7.569,39.928-1.656l37.047,21.5a13.418,13.418,0,0,1,6.451,7.117c1.505-4.795-.559-9.633-6.451-13.03l-37.047-21.5c-10.235-5.913-28.1-5.16-39.928,1.656l-30.854,17.825C560.6,261.25,557.42,267.335,559.183,272.646Z" transform="translate(-118.483 268.265)" fill="#001a46"/>
      <path id="Path_1102" data-name="Path 1102" d="M486.751,262.489l30.855-17.8c11.826-6.837,29.693-7.569,39.928-1.656l37.068,21.5a13.374,13.374,0,0,1,6.451,7.117c1.526-4.816-.538-9.654-6.451-13.03l-37.068-21.5c-10.235-5.913-28.1-5.182-39.928,1.656l-30.855,17.739c-7.87,4.537-11.03,10.643-9.267,15.933A19.114,19.114,0,0,1,486.751,262.489Z" transform="translate(-212.45 268.123)" fill="#001a46"/>
      <path id="Path_1103" data-name="Path 1103" d="M385.116,320.989l30.855-17.8c11.826-6.837,29.715-7.569,39.95-1.656L492.9,322.924a13.288,13.288,0,0,1,6.45,7.117c1.527-4.816-.538-9.654-6.45-13.03l-37.047-21.394c-10.235-5.913-28.124-5.182-39.95,1.656l-30.855,17.8c-7.87,4.537-11.03,10.751-9.267,15.933a19.115,19.115,0,0,1,9.332-10.02Z" transform="translate(-329.42 335.407)" fill="#001a46"/>
      <path id="Path_1104" data-name="Path 1104" d="M635.471,282.127l-37.047-21.394c-10.235-5.913-28.124-5.16-39.928,1.656L527.62,280.214c-7.848,4.537-11.03,10.622-9.267,15.933a19.137,19.137,0,0,1,9.267-10.02L558.5,268.3c11.8-6.816,29.693-7.568,39.928-1.656l37.047,21.394a13.373,13.373,0,0,1,6.45,7.117C643.405,290.362,641.341,285.524,635.471,282.127Z" transform="translate(-165.443 295.294)" fill="#001a46"/>
      <path id="Path_1105" data-name="Path 1105" d="M533.8,340.627l-37.047-21.394c-10.235-5.913-28.1-5.16-39.928,1.656l-30.855,17.825c-7.87,4.537-11.052,10.622-9.289,15.933a19.094,19.094,0,0,1,9.289-10.02L456.826,326.8c11.826-6.816,29.693-7.569,39.928-1.656L533.8,346.54a13.418,13.418,0,0,1,6.45,7.117C541.735,348.862,539.671,344.024,533.8,340.627Z" transform="translate(-282.378 362.577)" fill="#001a46"/>
      <path id="Path_1106" data-name="Path 1106" d="M561.84,274.5l-36.81-21.243c-10.17-5.87-8.88-16.126,2.86-22.9l30.639-17.7c11.74-6.773,29.5-7.526,39.649-1.656l36.81,21.243c10.149,5.87,8.88,16.126-2.86,22.9l-30.639,17.7C589.749,279.617,571.989,280.37,561.84,274.5Z" transform="translate(-165.11 238.137)" fill="#72b5e8"/>
      <path id="Path_1107" data-name="Path 1107" d="M518.19,223.62Z" transform="translate(-165.086 257.195)" fill="#d62d69"/>
      <path id="Path_1108" data-name="Path 1108" d="M632.119,236.045l-30.639,17.7c-11.74,6.773-29.5,7.525-39.649,1.656l-36.81-21.243c-4.3-2.537-6.6-5.87-6.816-9.4V229.9c-.3,3.956,1.935,7.783,6.816,10.6l36.81,21.243c10.149,5.87,27.952,5.139,39.649-1.634l30.639-17.7c6.063-3.5,9.332-7.934,9.676-12.213h0a6.679,6.679,0,0,0,0-1.312V223.66h0C641.579,227.917,638.333,232.476,632.119,236.045Z" transform="translate(-165.101 257.241)" fill="#2672ab"/>
      <path id="Path_1109" data-name="Path 1109" d="M518.19,223.62Z" transform="translate(-165.086 257.195)" fill="#d62d69"/>
      <path id="Path_1110" data-name="Path 1110" d="M561.831,254.81l-36.81-21.243c-4.3-2.537-6.6-5.87-6.816-9.4v5.139c-.3,3.956,1.935,7.783,6.816,10.6l36.81,21.243Z" transform="translate(-165.101 257.827)" fill="#3f92d1"/>
      <path id="Path_1111" data-name="Path 1111" d="M632.114,235.168l-30.639,17.7c-11.74,6.773-29.5,7.525-39.649,1.656l-36.81-21.243a12.127,12.127,0,0,1-6.794-9.181c-.365,4.042,1.849,7.934,6.794,10.751l36.81,21.243c10.149,5.87,27.952,5.117,39.649-1.656l30.639-17.7c6.794-3.913,10.063-9.009,9.654-13.718C641.4,227.277,638.2,231.685,632.114,235.168Z" transform="translate(-165.095 256.505)" fill="#fff"/>
      <path id="Path_1113" data-name="Path 1113" d="M602.551,297.846l-36.81-21.136c-10.17-5.87-8.88-16.126,2.838-22.9l30.661-17.7c11.74-6.773,29.479-7.5,39.649-1.634l36.81,21.243c10.149,5.87,8.88,16.126-2.86,22.9l-30.639,17.7a46.6,46.6,0,0,1-21.708,5.5C613.965,301.944,607.392,300.646,602.551,297.846Z" transform="translate(-118.289 265.126)" fill="#ffa000"/>
      <path id="Path_1114" data-name="Path 1114" d="M558.905,247h0v.473A3.27,3.27,0,0,1,558.905,247Z" transform="translate(-118.269 284.085)" fill="#d62d69"/>
      <path id="Path_1115" data-name="Path 1115" d="M672.838,259.557l-30.639,17.7c-11.74,6.773-29.5,7.5-39.649,1.634l-36.81-21.136c-4.3-2.516-6.622-5.848-6.837-9.375v5.074c-.28,3.956,1.957,7.783,6.837,10.6l36.81,21.243c10.149,5.87,27.952,5.139,39.649-1.634l30.639-17.7c6.063-3.5,9.332-7.934,9.676-12.213h0a6.7,6.7,0,0,0,0-1.312V247h0C682.3,251.429,679.031,255.988,672.838,259.557Z" transform="translate(-118.288 284.085)" fill="#d58600"/>
      <path id="Path_1116" data-name="Path 1116" d="M558.905,247h0v.473A3.27,3.27,0,0,1,558.905,247Z" transform="translate(-118.269 284.085)" fill="#d62d69"/>
      <path id="Path_1117" data-name="Path 1117" d="M602.55,278.15l-36.81-21.136c-4.3-2.516-6.622-5.848-6.837-9.375v5.074c-.28,3.956,1.957,7.783,6.837,10.6l36.81,21.243Z" transform="translate(-118.288 284.821)" fill="#d58600"/>
      <path id="Path_1118" data-name="Path 1118" d="M672.824,258.588l-30.639,17.7c-11.74,6.773-29.5,7.5-39.649,1.634l-36.81-21.243c-4.3-2.473-6.451-5.719-6.794-9.16-.366,4.021,1.849,7.913,6.794,10.751l36.81,21.243c10.149,5.87,27.952,5.139,39.649-1.634l30.639-17.7c6.794-3.913,10.063-9.009,9.654-13.739C682.091,250.719,678.844,255.105,672.824,258.588Z" transform="translate(-118.273 283.441)" fill="#fff"/>
      <path id="Path_1119" data-name="Path 1119" d="M520.913,284.4,484.124,263.16c-10.17-5.87-8.9-16.126,2.838-22.9l30.6-17.7c11.74-6.773,29.5-7.5,39.67-1.634l36.789,21.243c10.17,5.87,8.9,16.126-2.838,22.9l-30.618,17.7C548.844,289.542,531.083,290.273,520.913,284.4Z" transform="translate(-212.167 249.542)" fill="#ffa000"/>
      <path id="Path_1120" data-name="Path 1120" d="M477.284,233.53h0V234A3.62,3.62,0,0,1,477.284,233.53Z" transform="translate(-212.143 268.593)" fill="#d62d69"/>
      <path id="Path_1121" data-name="Path 1121" d="M591.219,245.976l-30.661,17.7c-11.718,6.773-29.479,7.5-39.649,1.634L484.12,244.063c-4.3-2.516-6.622-5.848-6.837-9.375v11.675c-.28,3.956,1.957,7.784,6.837,10.6l36.789,21.243c10.17,5.87,27.952,5.139,39.649-1.634l30.661-17.7c6.063-3.5,9.332-7.934,9.654-12.213h0V233.57h0C600.658,237.849,597.411,242.407,591.219,245.976Z" transform="translate(-212.163 268.639)" fill="#d58600"/>
      <path id="Path_1122" data-name="Path 1122" d="M477.284,233.53h0V234A3.62,3.62,0,0,1,477.284,233.53Z" transform="translate(-212.143 268.593)" fill="#d62d69"/>
      <path id="Path_1123" data-name="Path 1123" d="M520.909,264.708,484.12,243.465c-4.3-2.516-6.622-5.848-6.837-9.375v11.675c-.28,3.956,1.957,7.784,6.837,10.6l36.789,21.243Z" transform="translate(-212.163 269.237)" fill="#d58600"/>
      <path id="Path_1124" data-name="Path 1124" d="M591.213,245.088l-30.661,17.7c-11.718,6.773-29.479,7.5-39.649,1.634l-36.789-21.243a12.084,12.084,0,0,1-6.816-9.16c-.344,4.021,1.87,7.913,6.816,10.751L520.9,266.009c10.17,5.87,27.952,5.139,39.649-1.634l30.661-17.7c6.794-3.913,10.041-9.009,9.633-13.739C600.48,237.219,597.233,241.67,591.213,245.088Z" transform="translate(-212.157 267.914)" fill="#fff"/>
      <path id="Path_1126" data-name="Path 1126" d="M570.853,284.907a1.075,1.075,0,0,1-1.075-1.075V265.77l-63.967-60.333a1.08,1.08,0,0,1,1.484-1.57l64.633,60.978v18.986A1.075,1.075,0,0,1,570.853,284.907Z" transform="translate(-179.713 234.138)" fill="#363795"/>
      <path id="Path_1127" data-name="Path 1127" d="M517.65,200.911a16.083,16.083,0,0,0-7.311-12.621,5.074,5.074,0,0,0-5.289-.451l-2.15,1.247,1.419,2.43v.409a16.169,16.169,0,0,0,7.332,12.621l.538.28,1.183,2,1.548-.946a4.709,4.709,0,0,0,2.731-4.967Z" transform="translate(-182.672 215.421)" fill="#005c97"/>
      <path id="Path_1128" data-name="Path 1128" d="M516.621,201.455c0,4.644-3.268,6.45-7.311,4.171A16.083,16.083,0,0,1,502,193c0-4.623,3.268-6.45,7.31-4.171a16.148,16.148,0,0,1,7.311,12.621Z" transform="translate(-183.707 216.06)" fill="#363795"/>
      <path id="Path_1129" data-name="Path 1129" d="M523.139,168.069a23.157,23.157,0,0,0-10.471-18.1,7.332,7.332,0,0,0-7.59-.645L501.96,151.1l2.15,3.483v.581a23.092,23.092,0,0,0,10.493,18.1l.8.409,1.7,2.86,2.15-1.355C521.591,174.391,523.139,171.875,523.139,168.069Z" transform="translate(-183.753 170.858)" fill="#72b5e8"/>
      <path id="Path_1130" data-name="Path 1130" d="M521.665,168.865c0,6.644-4.709,9.332-10.493,5.977A23.114,23.114,0,0,1,500.68,156.76c0-6.644,4.709-9.332,10.493-5.977A23.114,23.114,0,0,1,521.665,168.865Z" transform="translate(-185.225 171.76)" fill="#a8cff0"/>
      <path id="Path_1131" data-name="Path 1131" d="M514.795,250.708a8.042,8.042,0,0,1-3.956-1.183,18.147,18.147,0,0,1-8.192-14.04l-3.827-75.577a12.548,12.548,0,0,1,0-1.333c0-5.59,2.924-9.224,7.439-9.224a11.568,11.568,0,0,1,5.719,1.72,26.662,26.662,0,0,1,12.062,20.835v1.333l-3.827,71.17C520.063,248.214,517.977,250.708,514.795,250.708Zm-8.6-99.208c-3.247,0-5.289,2.709-5.289,7.074a10.3,10.3,0,0,0,0,1.183l3.827,75.663a16.018,16.018,0,0,0,7.117,12.234,5.956,5.956,0,0,0,2.881.9c1.935,0,3.118-1.57,3.139-4.3L521.7,173a11.142,11.142,0,0,0,0-1.183A24.232,24.232,0,0,0,510.839,152.9a9.483,9.483,0,0,0-4.644-1.4Z" transform="translate(-187.386 171.774)" fill="#363795"/>
      <path id="Path_1132" data-name="Path 1132" d="M513.4,219.6a12.062,12.062,0,0,1-6.708-9.826c0-5.655,5.5-3.376,5.5-6.149v-5.956l-4.128-2.387v6.45c-3.5-.6-5.913,2.021-5.461,6.9a18.856,18.856,0,0,0,7.246,12.492c2.86,2.021,5.461,2.15,7.182.968.408-.3-.129-1.462-.71-1.484A6.3,6.3,0,0,1,513.4,219.6Z" transform="translate(-183.069 224.6)" fill="#001a46"/>
      <path id="Path_1133" data-name="Path 1133" d="M512.915,219.8a12.041,12.041,0,0,1-6.73-9.826c0-5.655,5.526-3.354,5.526-6.149v-5.956l-4.128-2.387v6.45c-3.5-.6-5.934,2.021-5.461,6.9a18.922,18.922,0,0,0,7.224,12.492c2.881,2.021,5.483,2.15,7.182.968.43-.3-.129-1.462-.688-1.484a6.3,6.3,0,0,1-2.924-1.011Z" transform="translate(-183.635 224.83)" fill="#03336e"/>
      <path id="Path_1134" data-name="Path 1134" d="M520.71,169.439a23.179,23.179,0,0,0-10.493-18.1,7.332,7.332,0,0,0-7.59-.645l-3.118,1.785,2.043,3.483v.581a23.157,23.157,0,0,0,10.493,18.1l.8.409,1.7,2.86,2.15-1.355C519.141,175.7,520.71,173.181,520.71,169.439Z" transform="translate(-186.571 172.433)" fill="#72b5e8"/>
      <ellipse id="Ellipse_1" data-name="Ellipse 1" cx="8.536" cy="14.793" rx="8.536" ry="14.793" transform="translate(305.865 329.017) rotate(-30.31)" fill="#161da2"/>
      <path id="Path_1135" data-name="Path 1135" d="M512.054,164.314c0,3.7-2.6,5.182-5.827,3.333a12.9,12.9,0,0,1-5.827-10.063c0-3.7,2.6-5.182,5.827-3.311a12.772,12.772,0,0,1,5.827,10.041Z" transform="translate(-185.547 176.505)" fill="#03336e"/>
      <path id="Path_1136" data-name="Path 1136" d="M515.94,201.838a16.147,16.147,0,0,0-7.311-12.621,5.117,5.117,0,0,0-5.289-.452l-2.15,1.247,1.419,2.43v.409a16.1,16.1,0,0,0,7.332,12.621l.559.3,1.161,1.978,1.548-.946a4.709,4.709,0,0,0,2.731-4.967Z" transform="translate(-184.639 216.494)" fill="#005c97"/>
      <path id="Path_1137" data-name="Path 1137" d="M514.911,202.4c0,4.623-3.268,6.45-7.31,4.171a16.148,16.148,0,0,1-7.31-12.621c0-4.644,3.268-6.45,7.31-4.171a16.083,16.083,0,0,1,7.311,12.621Z" transform="translate(-185.674 217.139)" fill="#363795"/>
      <path id="Path_1138" data-name="Path 1138" d="M509.928,198.287c0,2.58-1.828,3.612-4.064,2.322A8.966,8.966,0,0,1,501.8,193.6c0-2.58,1.828-3.612,4.064-2.322A9.03,9.03,0,0,1,509.928,198.287Z" transform="translate(-183.937 219.357)" fill="#fff"/>
      <path id="Path_1139" data-name="Path 1139" d="M506.575,319.4a1.075,1.075,0,0,1-1.075-1.075V204.645a1.075,1.075,0,0,1,1.075-1.075,1.1,1.1,0,0,1,1.075,1.075V318.323A1.1,1.1,0,0,1,506.575,319.4Z" transform="translate(-179.682 234.135)" fill="#363795"/>
      <path id="Path_1140" data-name="Path 1140" d="M476.725,284.907a1.075,1.075,0,0,1-1.075-1.075V264.846l.344-.323,64.289-60.656a1.08,1.08,0,1,1,1.483,1.57L477.8,265.77v18.061A1.075,1.075,0,0,1,476.725,284.907Z" transform="translate(-214.013 234.138)" fill="#363795"/>
      <path id="Path_1141" data-name="Path 1141" d="M378.3,127.441l45.282-26.017V92.63L378.3,118.668Z" transform="translate(-325.98 106.538)" fill="#363795"/>
      <path id="Path_1142" data-name="Path 1142" d="M365.94,106.221l26.6,15.653V113.1L365.94,97.47Z" transform="translate(-340.196 112.104)" fill="#005c97"/>
      <path id="Path_1143" data-name="Path 1143" d="M365.94,111.41l26.6,15.632L437.8,101,411.136,85.35Z" transform="translate(-340.196 98.165)" fill="#ffa000"/>
      <path id="Path_1144" data-name="Path 1144" d="M378.3,122.281l45.282-26.038V87.47L378.3,113.508Z" transform="translate(-325.98 100.603)" fill="#363795"/>
      <path id="Path_1145" data-name="Path 1145" d="M365.94,101.061l26.6,15.653v-8.773L365.94,92.31Z" transform="translate(-340.196 106.17)" fill="#005c97"/>
      <path id="Path_1146" data-name="Path 1146" d="M365.94,106.25l26.6,15.632L437.8,95.843,411.136,80.19Z" transform="translate(-340.196 92.23)" fill="#ffa000"/>
      <path id="Path_1147" data-name="Path 1147" d="M378.3,117.262l45.282-26.038V82.43L378.3,108.468Z" transform="translate(-325.98 94.806)" fill="#363795"/>
      <path id="Path_1148" data-name="Path 1148" d="M365.94,96.01l26.6,15.675V102.89l-26.6-15.61Z" transform="translate(-340.196 100.384)" fill="#005c97"/>
      <path id="Path_1149" data-name="Path 1149" d="M365.94,101.231l26.6,15.61L437.8,90.8,411.136,75.15Z" transform="translate(-340.196 86.433)" fill="#ffa000"/>
      <path id="Path_1150" data-name="Path 1150" d="M378.3,111.981l45.282-26.038V77.17L378.3,103.208Z" transform="translate(-325.98 88.757)" fill="#363795"/>
      <path id="Path_1151" data-name="Path 1151" d="M365.94,90.761l26.6,15.653V97.642L365.94,82.01Z" transform="translate(-340.196 94.323)" fill="#005c97"/>
      <path id="Path_1152" data-name="Path 1152" d="M365.94,95.95l26.6,15.632L437.8,85.543,411.136,69.89Z" transform="translate(-340.196 80.383)" fill="#363853"/>
      <path id="Path_1153" data-name="Path 1153" d="M374.79,265.248l75.749,44.121,76.8-44.185L451.486,221.02Z" transform="translate(-330.017 254.205)" fill="#92b4d1" opacity="0.78"/>
      <path id="Path_1154" data-name="Path 1154" d="M410.01,286.9l74.8-43v-6.88l-74.8,43.024Z" transform="translate(-289.509 272.607)" fill="#363795"/>
      <path id="Path_1155" data-name="Path 1155" d="M375.72,243.866l73.771,43V280.01L375.72,237.05Z" transform="translate(-328.947 272.641)" fill="#363795"/>
      <path id="Path_1156" data-name="Path 1156" d="M375.72,260.087l73.771,42.96,74.76-43.024-73.836-43Z" transform="translate(-328.947 249.604)" fill="#363795"/>
      <path id="Path_1157" data-name="Path 1157" d="M375.72,237.085l73.771,42.96,74.76-43.024-74.524,41.562Z" transform="translate(-328.947 272.607)" fill="#005c97"/>
      <path id="Path_1158" data-name="Path 1158" d="M410.11,268.5l45.282-26.038V233.69L410.11,259.728Z" transform="translate(-289.394 268.777)" fill="#72b5e8"/>
      <path id="Path_1159" data-name="Path 1159" d="M389.36,242.44,434,268.478v-8.773l-44.637-26Z" transform="translate(-313.259 268.8)" fill="#a8cff0"/>
      <path id="Path_1160" data-name="Path 1160" d="M389.36,247.65l44.637,26,45.261-26.038-44.7-26.017Z" transform="translate(-313.259 254.86)" fill="#005c97"/>
      <path id="Path_1161" data-name="Path 1161" d="M389.36,233.733l44.637,26,45.261-26.038-45.11,24.318Z" transform="translate(-313.259 268.777)" fill="#161da2"/>
      <path id="Path_1162" data-name="Path 1162" d="M422.91,121.276v5.289l4.623-2.666V118.61Z" transform="translate(-274.672 136.418)" fill="#72b5e8"/>
      <path id="Path_1163" data-name="Path 1163" d="M437.711,128.4v5.289L410.06,117.709V112.42Z" transform="translate(-289.451 129.299)" fill="#a8cff0"/>
      <path id="Path_1164" data-name="Path 1164" d="M410.06,113.846l27.651,15.976,4.6-2.666L414.64,111.18Z" transform="translate(-289.451 127.873)" fill="#d1ebff"/>
      <path id="Path_1165" data-name="Path 1165" d="M422.91,141.106V146.4l4.623-2.645V138.44Z" transform="translate(-274.672 159.226)" fill="#72b5e8"/>
      <path id="Path_1166" data-name="Path 1166" d="M437.711,148.226v5.289L410.06,137.539V132.25Z" transform="translate(-289.451 152.106)" fill="#363795"/>
      <path id="Path_1167" data-name="Path 1167" d="M410.06,133.676l27.651,15.976,4.6-2.666L414.64,131.01Z" transform="translate(-289.451 150.68)" fill="#005c97"/>
      <path id="Path_1168" data-name="Path 1168" d="M422.91,160.845v5.311l4.623-2.666V158.2Z" transform="translate(-274.672 181.953)" fill="#72b5e8"/>
      <path id="Path_1169" data-name="Path 1169" d="M437.711,167.964v5.311l-27.651-16V152.01Z" transform="translate(-289.451 174.833)" fill="#363795"/>
      <path id="Path_1170" data-name="Path 1170" d="M410.06,153.448,437.711,169.4l4.6-2.645-27.672-16Z" transform="translate(-289.451 173.396)" fill="#005c97"/>
      <path id="Path_1171" data-name="Path 1171" d="M422.91,180.546v5.289l4.623-2.645V177.88Z" transform="translate(-274.672 204.587)" fill="#72b5e8"/>
      <path id="Path_1172" data-name="Path 1172" d="M437.711,187.666v5.289L410.06,176.979V171.69Z" transform="translate(-289.451 197.468)" fill="#363795"/>
      <path id="Path_1173" data-name="Path 1173" d="M410.06,173.116l27.651,15.976,4.6-2.666L414.64,170.45Z" transform="translate(-289.451 196.042)" fill="#005c97"/>
      <path id="Path_1174" data-name="Path 1174" d="M422.91,200.365v5.289l4.623-2.645V197.72Z" transform="translate(-274.672 227.406)" fill="#72b5e8"/>
      <path id="Path_1175" data-name="Path 1175" d="M437.711,207.484v5.289L410.06,196.8V191.53Z" transform="translate(-289.451 220.287)" fill="#363795"/>
      <path id="Path_1176" data-name="Path 1176" d="M410.06,192.968l27.651,15.954,4.6-2.645-27.672-16Z" transform="translate(-289.451 218.849)" fill="#005c97"/>
      <path id="Path_1177" data-name="Path 1177" d="M422.91,220.136v5.289l4.623-2.666V217.47Z" transform="translate(-274.672 250.122)" fill="#72b5e8"/>
      <path id="Path_1178" data-name="Path 1178" d="M437.711,227.256v5.289L410.06,216.569V211.28Z" transform="translate(-289.451 243.002)" fill="#363795"/>
      <path id="Path_1179" data-name="Path 1179" d="M410.06,212.706l27.651,15.976,4.6-2.666L414.64,210.04Z" transform="translate(-289.451 241.576)" fill="#005c97"/>
      <path id="Path_1180" data-name="Path 1180" d="M399.731,101.586v5.289l-4.6-2.645V98.92Z" transform="translate(-306.623 113.772)" fill="#72b5e8"/>
      <path id="Path_1181" data-name="Path 1181" d="M397.27,108.706v5.289l27.651-15.976V92.73Z" transform="translate(-304.162 106.653)" fill="#72b5e8"/>
      <path id="Path_1182" data-name="Path 1182" d="M427.382,94.156l-27.651,15.976-4.6-2.666L422.8,91.49Z" transform="translate(-306.623 105.227)" fill="#d1ebff"/>
      <path id="Path_1183" data-name="Path 1183" d="M422.91,101.586v5.289l4.623-2.645V98.92Z" transform="translate(-274.672 113.772)" fill="#72b5e8"/>
      <path id="Path_1184" data-name="Path 1184" d="M437.711,108.706v5.289L410.06,98.019V92.73Z" transform="translate(-289.451 106.653)" fill="#a8cff0"/>
      <path id="Path_1185" data-name="Path 1185" d="M410.06,94.156l27.651,15.976,4.6-2.666L414.64,91.49Z" transform="translate(-289.451 105.227)" fill="#d1ebff"/>
      <path id="Path_1186" data-name="Path 1186" d="M425.06,75.956V421.076l4.623-2.666V73.29Z" transform="translate(-272.199 84.294)" fill="#005c97"/>
      <path id="Path_1187" data-name="Path 1187" d="M427.52,75.945V421.064l-4.58-2.666V73.3Z" transform="translate(-274.637 84.305)" fill="#363795"/>
      <path id="Path_1188" data-name="Path 1188" d="M422.94,74.738l4.58,2.645,4.6-2.666-4.6-2.666Z" transform="translate(-274.637 82.868)" fill="#d1ebff"/>
      <path id="Path_1189" data-name="Path 1189" d="M414.683,110.366v5.289l-4.623-2.666V107.7Z" transform="translate(-289.451 123.87)" fill="#72b5e8"/>
      <path id="Path_1190" data-name="Path 1190" d="M412.2,117.486v5.289L439.851,106.8V101.51Z" transform="translate(-286.99 116.751)" fill="#72b5e8"/>
      <path id="Path_1191" data-name="Path 1191" d="M442.312,102.936l-27.651,15.976-4.6-2.666,27.672-15.976Z" transform="translate(-289.451 115.325)" fill="#d1ebff"/>
      <path id="Path_1192" data-name="Path 1192" d="M374.593,77.665v5.311l-4.623-2.666V75.02Z" transform="translate(-335.56 86.284)" fill="#72b5e8"/>
      <path id="Path_1193" data-name="Path 1193" d="M372.11,81.081v5.311l15.073-9.074V72.05Z" transform="translate(-333.099 82.868)" fill="#363795"/>
      <path id="Path_1194" data-name="Path 1194" d="M389.644,73.488l-15.073,9.031-4.6-2.645L385.064,70.8Z" transform="translate(-335.56 81.43)" fill="#005c97"/>
      <path id="Path_1195" data-name="Path 1195" d="M379.11,65.256V82.887l4.623-2.645V62.59Z" transform="translate(-325.048 71.987)" fill="#363795"/>
      <path id="Path_1196" data-name="Path 1196" d="M381.57,65.245V82.876l-4.58-2.645V62.6Z" transform="translate(-327.486 71.999)" fill="#363795"/>
      <path id="Path_1197" data-name="Path 1197" d="M376.99,64.038l4.58,2.645,4.6-2.666-4.6-2.666Z" transform="translate(-327.486 70.561)" fill="#d1ebff"/>
      <path id="Path_1198" data-name="Path 1198" d="M519.51,154.866v5.289l4.6-2.666V152.2Z" transform="translate(-163.568 175.052)" fill="#005c97"/>
      <path id="Path_1200" data-name="Path 1200" d="M376.78,72.056,683.67,250.109l4.6-2.666L381.36,69.39Z" transform="translate(-327.728 79.808)" fill="#005c97"/>
      <path id="Path_1201" data-name="Path 1201" d="M399.3,91.906V97.2l-4.623-2.645V89.24Z" transform="translate(-307.14 102.639)" fill="#72b5e8"/>
      <path id="Path_1202" data-name="Path 1202" d="M396.83,95.322v5.289l15.051-9.052V86.27Z" transform="translate(-304.668 99.223)" fill="#72b5e8"/>
      <path id="Path_1203" data-name="Path 1203" d="M414.354,87.7,399.3,96.748l-4.623-2.666,15.094-9.052Z" transform="translate(-307.14 97.797)" fill="#d1ebff"/>
      <path id="Path_1204" data-name="Path 1204" d="M403.83,79.576V97.207l4.623-2.645V76.91Z" transform="translate(-296.617 88.457)" fill="#363795"/>
      <path id="Path_1205" data-name="Path 1205" d="M406.29,79.565V97.2l-4.58-2.645V76.92Z" transform="translate(-299.055 88.469)" fill="#005c97"/>
      <path id="Path_1206" data-name="Path 1206" d="M401.71,78.358,406.29,81l4.6-2.666-4.6-2.666Z" transform="translate(-299.055 87.031)" fill="#d1ebff"/>
      <path id="Path_1207" data-name="Path 1207" d="M386.983,84.835v5.311l-4.623-2.666V82.19Z" transform="translate(-321.31 94.53)" fill="#72b5e8"/>
      <path id="Path_1208" data-name="Path 1208" d="M384.51,88.251v5.311l15.051-9.074V79.22Z" transform="translate(-318.837 91.114)" fill="#005c97"/>
      <path id="Path_1209" data-name="Path 1209" d="M402.034,80.658l-15.051,9.031-4.623-2.645,15.094-9.074Z" transform="translate(-321.31 89.677)" fill="#d1ebff"/>
      <path id="Path_1210" data-name="Path 1210" d="M391.51,72.426V90.057l4.623-2.645V69.76Z" transform="translate(-310.786 80.234)" fill="#72b5e8"/>
      <path id="Path_1211" data-name="Path 1211" d="M393.981,72.415V90.046l-4.6-2.645V69.77Z" transform="translate(-313.236 80.245)" fill="#363795"/>
      <path id="Path_1212" data-name="Path 1212" d="M389.38,71.2l4.6,2.645,4.6-2.666-4.6-2.645Z" transform="translate(-313.236 78.819)" fill="#d1ebff"/>
      <path id="Path_1213" data-name="Path 1213" d="M485.7,142.066v5.289l-4.623-2.666V139.4Z" transform="translate(-207.768 160.33)" fill="#72b5e8"/>
      <path id="Path_1214" data-name="Path 1214" d="M483.22,145.482v5.289l15.073-9.052V136.43Z" transform="translate(-205.307 156.914)" fill="#363795"/>
      <path id="Path_1215" data-name="Path 1215" d="M500.754,137.856l-15.073,9.052-4.6-2.666,15.094-9.052Z" transform="translate(-207.768 155.488)" fill="#005c97"/>
      <path id="Path_1216" data-name="Path 1216" d="M490.22,129.715v17.653l4.623-2.645V127.07Z" transform="translate(-197.256 146.149)" fill="#005c97"/>
      <path id="Path_1217" data-name="Path 1217" d="M492.68,129.715v17.653l-4.58-2.645V127.07Z" transform="translate(-199.694 146.149)" fill="#363795"/>
      <path id="Path_1218" data-name="Path 1218" d="M488.1,128.5l4.58,2.645,4.6-2.645-4.6-2.666Z" transform="translate(-199.694 144.722)" fill="#d1ebff"/>
      <path id="Path_1219" data-name="Path 1219" d="M473.361,134.995v5.289l-4.6-2.645V132.35Z" transform="translate(-221.938 152.221)" fill="#72b5e8"/>
      <path id="Path_1220" data-name="Path 1220" d="M470.9,138.411V143.7l15.073-9.052V129.38Z" transform="translate(-219.477 148.805)" fill="#363795"/>
      <path id="Path_1221" data-name="Path 1221" d="M488.434,130.818l-15.073,9.031-4.6-2.645,15.094-9.074Z" transform="translate(-221.938 147.368)" fill="#005c97"/>
      <path id="Path_1222" data-name="Path 1222" d="M477.9,122.676v17.653l4.623-2.666V120.01Z" transform="translate(-211.426 138.029)" fill="#005c97"/>
      <path id="Path_1223" data-name="Path 1223" d="M480.36,122.665v17.653l-4.58-2.666V120.02Z" transform="translate(-213.864 138.04)" fill="#363795"/>
      <path id="Path_1224" data-name="Path 1224" d="M475.78,121.458l4.58,2.645,4.6-2.666-4.6-2.666Z" transform="translate(-213.864 136.602)" fill="#d1ebff"/>
      <path id="Path_1225" data-name="Path 1225" d="M460.983,127.836v5.289l-4.623-2.645V125.17Z" transform="translate(-236.2 143.963)" fill="#72b5e8"/>
      <path id="Path_1226" data-name="Path 1226" d="M458.5,131.252v5.289l15.073-9.052V122.2Z" transform="translate(-233.738 140.547)" fill="#363795"/>
      <path id="Path_1227" data-name="Path 1227" d="M476.034,123.626l-15.073,9.052-4.6-2.666,15.094-9.052Z" transform="translate(-236.2 139.121)" fill="#005c97"/>
      <path id="Path_1228" data-name="Path 1228" d="M465.51,115.506v17.631l4.6-2.645V112.84Z" transform="translate(-225.676 129.782)" fill="#005c97"/>
      <path id="Path_1229" data-name="Path 1229" d="M467.96,115.495v17.631l-4.58-2.645V112.85Z" transform="translate(-228.126 129.794)" fill="#363795"/>
      <path id="Path_1230" data-name="Path 1230" d="M463.38,114.288l4.58,2.645,4.6-2.666-4.6-2.666Z" transform="translate(-228.126 128.356)" fill="#d1ebff"/>
      <path id="Path_1231" data-name="Path 1231" d="M448.663,120.575v5.311l-4.623-2.666V117.93Z" transform="translate(-250.369 135.636)" fill="#72b5e8"/>
      <path id="Path_1232" data-name="Path 1232" d="M446.18,123.991V129.3l15.073-9.074V114.96Z" transform="translate(-247.908 132.22)" fill="#363795"/>
      <path id="Path_1233" data-name="Path 1233" d="M463.714,116.4l-15.073,9.031-4.6-2.645,15.094-9.074Z" transform="translate(-250.369 130.783)" fill="#005c97"/>
      <path id="Path_1234" data-name="Path 1234" d="M453.19,108.256v17.653l4.6-2.666V105.59Z" transform="translate(-239.846 121.444)" fill="#005c97"/>
      <path id="Path_1235" data-name="Path 1235" d="M455.64,108.245V125.9l-4.58-2.666V105.6Z" transform="translate(-242.295 121.455)" fill="#363795"/>
      <path id="Path_1236" data-name="Path 1236" d="M451.06,107.026l4.58,2.645,4.6-2.666-4.6-2.645Z" transform="translate(-242.295 120.029)" fill="#d1ebff"/>
      <path id="Path_1237" data-name="Path 1237" d="M436.263,113.4v5.289l-4.623-2.645V110.76Z" transform="translate(-264.631 127.39)" fill="#72b5e8"/>
      <path id="Path_1238" data-name="Path 1238" d="M433.79,116.821v5.289l15.072-9.052V107.79Z" transform="translate(-262.158 123.974)" fill="#363795"/>
      <path id="Path_1239" data-name="Path 1239" d="M451.335,109.228l-15.072,9.031-4.623-2.645,15.116-9.074Z" transform="translate(-264.631 122.536)" fill="#005c97"/>
      <path id="Path_1240" data-name="Path 1240" d="M440.79,101.086v17.653l4.623-2.666V98.42Z" transform="translate(-254.107 113.197)" fill="#005c97"/>
      <path id="Path_1241" data-name="Path 1241" d="M443.25,101.075v17.653l-4.58-2.666V98.43Z" transform="translate(-256.546 113.209)" fill="#363795"/>
      <path id="Path_1242" data-name="Path 1242" d="M438.67,99.856l4.58,2.645,4.6-2.666-4.6-2.645Z" transform="translate(-256.546 111.782)" fill="#d1ebff"/>
      <path id="Path_1243" data-name="Path 1243" d="M423.943,106.366v5.289l-4.623-2.666V103.7Z" transform="translate(-278.801 119.27)" fill="#72b5e8"/>
      <path id="Path_1244" data-name="Path 1244" d="M421.47,109.782v5.289l15.073-9.052V100.73Z" transform="translate(-276.328 115.854)" fill="#363795"/>
      <path id="Path_1245" data-name="Path 1245" d="M439.015,102.156l-15.073,9.052-4.623-2.666,15.116-9.052Z" transform="translate(-278.801 114.428)" fill="#005c97"/>
      <path id="Path_1246" data-name="Path 1246" d="M428.47,94.026v17.653l4.623-2.666V91.36Z" transform="translate(-268.277 105.077)" fill="#005c97"/>
      <path id="Path_1247" data-name="Path 1247" d="M430.93,94.015v17.653L426.35,109V91.37Z" transform="translate(-270.715 105.089)" fill="#363795"/>
      <path id="Path_1248" data-name="Path 1248" d="M426.35,92.8l4.58,2.645,4.6-2.666-4.6-2.645Z" transform="translate(-270.715 103.662)" fill="#d1ebff"/>
      <path id="Path_1249" data-name="Path 1249" d="M411.553,99.2v5.289l-4.623-2.666V96.53Z" transform="translate(-293.051 111.023)" fill="#72b5e8"/>
      <path id="Path_1250" data-name="Path 1250" d="M409.07,102.612V107.9l15.072-9.052V93.56Z" transform="translate(-290.59 107.607)" fill="#72b5e8"/>
      <path id="Path_1251" data-name="Path 1251" d="M426.6,94.986l-15.072,9.052-4.6-2.666,15.094-9.052Z" transform="translate(-293.051 106.181)" fill="#d1ebff"/>
      <path id="Path_1252" data-name="Path 1252" d="M416.07,86.856v17.653l4.623-2.666V84.19Z" transform="translate(-282.539 96.831)" fill="#005c97"/>
      <path id="Path_1253" data-name="Path 1253" d="M418.53,86.845V104.5l-4.58-2.666V84.2Z" transform="translate(-284.977 96.842)" fill="#363795"/>
      <path id="Path_1254" data-name="Path 1254" d="M413.95,85.626l4.58,2.645,4.6-2.666-4.6-2.645Z" transform="translate(-284.977 95.416)" fill="#d1ebff"/>
      <path id="Path_1255" data-name="Path 1255" d="M498.081,149.236v5.289l-4.6-2.666V146.57Z" transform="translate(-193.506 168.576)" fill="#72b5e8"/>
      <path id="Path_1256" data-name="Path 1256" d="M495.62,152.652v5.289l15.073-9.052V143.6Z" transform="translate(-191.045 165.161)" fill="#363795"/>
      <path id="Path_1257" data-name="Path 1257" d="M513.154,145.026l-15.073,9.052-4.6-2.666,15.094-9.052Z" transform="translate(-193.506 163.734)" fill="#005c97"/>
      <path id="Path_1258" data-name="Path 1258" d="M510.47,160.225v5.311l4.623-2.666V157.58Z" transform="translate(-173.965 181.24)" fill="#161da2"/>
      <path id="Path_1259" data-name="Path 1259" d="M674.457,253.869v5.311L367.89,81.449V76.16Z" transform="translate(-337.953 87.595)" fill="#363795"/>
      <path id="Path_1260" data-name="Path 1260" d="M367.89,77.586,674.457,255.3l4.623-2.645L372.47,74.92Z" transform="translate(-337.953 86.169)" fill="#005c97"/>
      <path id="Path_1261" data-name="Path 1261" d="M502.62,136.885v17.653l4.623-2.645V134.24Z" transform="translate(-182.994 154.395)" fill="#005c97"/>
      <path id="Path_1262" data-name="Path 1262" d="M505.08,136.873v17.653l-4.58-2.645V134.25Z" transform="translate(-185.432 154.407)" fill="#363795"/>
      <path id="Path_1263" data-name="Path 1263" d="M500.5,135.688l4.58,2.623,4.6-2.645L505.08,133Z" transform="translate(-185.432 152.969)" fill="#d1ebff"/>
      <path id="Path_1264" data-name="Path 1264" d="M509.78,138.616v5.289l4.623-2.666V135.95Z" transform="translate(-174.759 156.362)" fill="#72b5e8"/>
      <path id="Path_1265" data-name="Path 1265" d="M662.6,225.935v5.289L376.93,65.3V60.03Z" transform="translate(-327.555 69.043)" fill="#363795"/>
      <path id="Path_1266" data-name="Path 1266" d="M376.93,61.456,662.6,227.361l4.6-2.666L381.51,58.79Z" transform="translate(-327.555 67.617)" fill="#005c97"/>
      <path id="Path_1267" data-name="Path 1267" d="M514.973,159v5.311l-4.623-2.666V156.36Z" transform="translate(-174.103 179.836)" fill="#005c97"/>
      <path id="Path_1268" data-name="Path 1268" d="M512.5,163.128v5.727l16.416-9.785V153.39Z" transform="translate(-171.631 175.297)" fill="#005c97"/>
      <path id="Path_1269" data-name="Path 1269" d="M530.024,154.828l-15.051,9.031-4.623-2.645,15.094-9.074Z" transform="translate(-174.103 174.983)" fill="#005c97"/>
      <path id="Path_1270" data-name="Path 1270" d="M509.75,138.646,530.735,173.5l4.623-2.666L514.373,135.98Z" transform="translate(-174.794 156.396)" fill="#363795"/>
      <path id="Path_1271" data-name="Path 1271" d="M512.21,138.635l20.964,34.854-4.58-2.666L507.63,135.99Z" transform="translate(-177.232 156.408)" fill="#005c97"/>
      <rect id="Rectangle_279" data-name="Rectangle 279" width="2.15" height="301.73" transform="matrix(0.502, -0.865, 0.865, 0.502, 60.374, 170.357)" fill="#005c97"/>
      <path id="Path_1272" data-name="Path 1272" d="M493.55,142.235v17.653l4.623-2.666V139.59Z" transform="translate(-193.426 160.548)" fill="#005c97"/>
      <path id="Path_1273" data-name="Path 1273" d="M496.01,142.235v17.653l-4.58-2.666V139.59Z" transform="translate(-195.864 160.548)" fill="#363795"/>
      <path id="Path_1274" data-name="Path 1274" d="M491.43,141.016l4.58,2.645,4.6-2.645-4.6-2.666Z" transform="translate(-195.864 159.122)" fill="#d1ebff"/>
      <path id="Path_1275" data-name="Path 1275" d="M498.081,138.635v5.311l-4.6-2.666V135.99Z" transform="translate(-193.506 156.408)" fill="#72b5e8"/>
      <path id="Path_1276" data-name="Path 1276" d="M495.62,142.051v5.311l15.073-9.074V133.02Z" transform="translate(-191.045 152.992)" fill="#363795"/>
      <path id="Path_1277" data-name="Path 1277" d="M513.154,134.446l-15.073,9.031-4.6-2.645,15.094-9.052Z" transform="translate(-193.506 151.566)" fill="#005c97"/>
      <path id="Path_1278" data-name="Path 1278" d="M481.15,135.065v17.653l4.623-2.666V132.42Z" transform="translate(-207.688 152.302)" fill="#005c97"/>
      <path id="Path_1279" data-name="Path 1279" d="M483.61,135.065v17.653l-4.58-2.666V132.42Z" transform="translate(-210.126 152.302)" fill="#363795"/>
      <path id="Path_1280" data-name="Path 1280" d="M479.03,133.846l4.58,2.645,4.6-2.645-4.6-2.666Z" transform="translate(-210.126 150.876)" fill="#d1ebff"/>
      <path id="Path_1281" data-name="Path 1281" d="M485.7,131.465v5.311l-4.623-2.666V128.82Z" transform="translate(-207.768 148.161)" fill="#72b5e8"/>
      <path id="Path_1282" data-name="Path 1282" d="M483.22,134.881v5.311l15.073-9.074V125.85Z" transform="translate(-205.307 144.745)" fill="#363795"/>
      <path id="Path_1283" data-name="Path 1283" d="M500.754,127.288l-15.073,9.031-4.6-2.645,15.094-9.074Z" transform="translate(-207.768 143.308)" fill="#005c97"/>
      <path id="Path_1284" data-name="Path 1284" d="M468.83,128.026v17.631l4.623-2.645V125.36Z" transform="translate(-221.857 144.182)" fill="#005c97"/>
      <path id="Path_1285" data-name="Path 1285" d="M471.29,128.229v19.059l-4.58-2.859V125.37Z" transform="translate(-224.296 142.551)" fill="#363795"/>
      <path id="Path_1287" data-name="Path 1287" d="M473.361,124.426v5.289l-4.6-2.666V121.76Z" transform="translate(-221.938 140.041)" fill="#72b5e8"/>
      <path id="Path_1288" data-name="Path 1288" d="M470.9,127.842v5.289l15.073-9.052V118.79Z" transform="translate(-219.477 136.625)" fill="#363795"/>
      <path id="Path_1289" data-name="Path 1289" d="M488.434,120.216l-15.073,9.052-4.6-2.666,15.094-9.052Z" transform="translate(-221.938 135.199)" fill="#005c97"/>
      <path id="Path_1290" data-name="Path 1290" d="M456.44,120.856v17.631l4.623-2.645V118.19Z" transform="translate(-236.108 135.935)" fill="#005c97"/>
      <path id="Path_1291" data-name="Path 1291" d="M458.89,120.92v18.136l-4.58-2.72V118.2Z" transform="translate(-238.557 135.366)" fill="#363795"/>
      <path id="Path_1293" data-name="Path 1293" d="M460.983,117.256v5.289l-4.623-2.666V114.59Z" transform="translate(-236.2 131.795)" fill="#72b5e8"/>
      <path id="Path_1294" data-name="Path 1294" d="M458.5,120.672v5.289l15.073-9.052V111.62Z" transform="translate(-233.738 128.379)" fill="#363795"/>
      <path id="Path_1295" data-name="Path 1295" d="M476.034,113.046,460.961,122.1l-4.6-2.666,15.094-9.052Z" transform="translate(-236.2 126.953)" fill="#005c97"/>
      <path id="Path_1296" data-name="Path 1296" d="M444.12,113.606v17.653l4.623-2.666V110.94Z" transform="translate(-250.277 127.597)" fill="#005c97"/>
      <path id="Path_1297" data-name="Path 1297" d="M446.57,113.648v18.008l-4.58-2.72V110.95Z" transform="translate(-252.727 127.2)" fill="#363795"/>
      <path id="Path_1299" data-name="Path 1299" d="M448.663,110.006V115.3l-4.623-2.645V107.34Z" transform="translate(-250.369 123.456)" fill="#72b5e8"/>
      <path id="Path_1300" data-name="Path 1300" d="M446.18,113.422v5.289l15.073-9.052V104.37Z" transform="translate(-247.908 120.04)" fill="#363795"/>
      <path id="Path_1301" data-name="Path 1301" d="M463.714,105.8l-15.073,9.052-4.6-2.666,15.094-9.052Z" transform="translate(-250.369 118.614)" fill="#005c97"/>
      <path id="Path_1302" data-name="Path 1302" d="M431.72,106.436v17.653l4.623-2.666V103.77Z" transform="translate(-264.539 119.35)" fill="#005c97"/>
      <path id="Path_1303" data-name="Path 1303" d="M434.18,106.517v18.267l-4.58-2.759V103.78Z" transform="translate(-266.977 118.656)" fill="#363795"/>
      <path id="Path_1305" data-name="Path 1305" d="M436.263,102.836v5.289l-4.623-2.666V100.17Z" transform="translate(-264.631 115.21)" fill="#72b5e8"/>
      <path id="Path_1306" data-name="Path 1306" d="M433.79,106.252v5.289l15.072-9.052V97.2Z" transform="translate(-262.158 111.794)" fill="#363795"/>
      <path id="Path_1307" data-name="Path 1307" d="M451.335,98.626l-15.072,9.052-4.623-2.666,15.116-9.052Z" transform="translate(-264.631 110.368)" fill="#005c97"/>
      <path id="Path_1308" data-name="Path 1308" d="M419.4,99.365v17.653l4.623-2.666V96.72Z" transform="translate(-278.709 111.242)" fill="#72b5e8"/>
      <path id="Path_1309" data-name="Path 1309" d="M421.86,99.365v17.653l-4.58-2.666V96.72Z" transform="translate(-281.147 111.242)" fill="#a8cff0"/>
      <path id="Path_1310" data-name="Path 1310" d="M417.28,98.146l4.58,2.645,4.6-2.645-4.6-2.666Z" transform="translate(-281.147 109.816)" fill="#d1ebff"/>
      <path id="Path_1311" data-name="Path 1311" d="M423.943,95.776v5.289l-4.623-2.645V93.11Z" transform="translate(-278.801 107.09)" fill="#72b5e8"/>
      <path id="Path_1312" data-name="Path 1312" d="M421.47,99.192v5.289l15.073-9.052V90.14Z" transform="translate(-276.328 103.674)" fill="#363795"/>
      <path id="Path_1313" data-name="Path 1313" d="M439.015,91.566l-15.073,9.052-4.623-2.666L434.436,88.9Z" transform="translate(-278.801 102.248)" fill="#005c97"/>
      <path id="Path_1314" data-name="Path 1314" d="M407,92.206v17.653l4.623-2.666V89.54Z" transform="translate(-292.971 102.984)" fill="#72b5e8"/>
      <path id="Path_1315" data-name="Path 1315" d="M409.46,92.195v17.653l-4.58-2.666V89.55Z" transform="translate(-295.409 102.995)" fill="#a8cff0"/>
      <path id="Path_1316" data-name="Path 1316" d="M404.88,90.976l4.58,2.645,4.6-2.666-4.6-2.645Z" transform="translate(-295.409 101.569)" fill="#d1ebff"/>
      <path id="Path_1317" data-name="Path 1317" d="M411.553,88.606V93.9l-4.623-2.645V85.94Z" transform="translate(-293.051 98.843)" fill="#72b5e8"/>
      <path id="Path_1318" data-name="Path 1318" d="M409.07,92.022v5.289l15.072-9.052V82.97Z" transform="translate(-290.59 95.427)" fill="#363795"/>
      <path id="Path_1319" data-name="Path 1319" d="M426.6,84.4l-15.072,9.052-4.6-2.666,15.094-9.052Z" transform="translate(-293.051 94.001)" fill="#005c97"/>
      <path id="Path_1320" data-name="Path 1320" d="M394.76,84.926v17.631l4.623-2.645V82.26Z" transform="translate(-307.048 94.611)" fill="#72b5e8"/>
      <path id="Path_1321" data-name="Path 1321" d="M397.22,84.915v17.631L392.64,99.9V82.27Z" transform="translate(-309.487 94.622)" fill="#161da2"/>
      <path id="Path_1322" data-name="Path 1322" d="M392.64,83.708l4.58,2.645,4.6-2.666-4.6-2.666Z" transform="translate(-309.487 93.185)" fill="#d1ebff"/>
      <path id="Path_1323" data-name="Path 1323" d="M399.3,81.326v5.289l-4.623-2.666V78.66Z" transform="translate(-307.14 90.47)" fill="#72b5e8"/>
      <path id="Path_1324" data-name="Path 1324" d="M396.83,84.742v5.289l15.051-9.074V75.69Z" transform="translate(-304.668 87.054)" fill="#363795"/>
      <path id="Path_1325" data-name="Path 1325" d="M414.354,77.116,399.3,86.168,394.68,83.5l15.094-9.052Z" transform="translate(-307.14 85.628)" fill="#005c97"/>
      <path id="Path_1326" data-name="Path 1326" d="M382.44,77.776V95.429l4.623-2.666V75.11Z" transform="translate(-321.218 86.387)" fill="#363795"/>
      <path id="Path_1327" data-name="Path 1327" d="M384.9,77.793v17.84l-4.58-2.694V75.12Z" transform="translate(-323.656 86.184)" fill="#363795"/>
      <path id="Path_1329" data-name="Path 1329" d="M386.983,74.266v5.289l-4.623-2.666V71.6Z" transform="translate(-321.31 82.35)" fill="#72b5e8"/>
      <path id="Path_1330" data-name="Path 1330" d="M384.51,77.682v5.289l15.051-9.052V68.63Z" transform="translate(-318.837 78.934)" fill="#363795"/>
      <path id="Path_1331" data-name="Path 1331" d="M402.034,70.056l-15.051,9.052-4.623-2.666,15.094-9.052Z" transform="translate(-321.31 77.508)" fill="#005c97"/>
      <path id="Path_1332" data-name="Path 1332" d="M370.05,70.606V88.237l4.6-2.645V67.94Z" transform="translate(-335.468 78.141)" fill="#363795"/>
      <path id="Path_1333" data-name="Path 1333" d="M372.5,70.656V88.694l-4.58-2.706V67.95Z" transform="translate(-337.918 77.684)" fill="#005c97"/>
      <path id="Path_1335" data-name="Path 1335" d="M374.593,66.895v5.311l-4.623-2.666V64.25Z" transform="translate(-335.56 73.897)" fill="#72b5e8"/>
      <path id="Path_1336" data-name="Path 1336" d="M372.11,70.311v5.311l15.073-9.074V61.28Z" transform="translate(-333.099 70.481)" fill="#363795"/>
      <path id="Path_1337" data-name="Path 1337" d="M389.644,62.706l-15.073,9.031-4.6-2.645,15.094-9.052Z" transform="translate(-335.56 69.055)" fill="#005c97"/>
      <path id="Path_1338" data-name="Path 1338" d="M500.74,143.975v5.311l4.623-2.666V141.33Z" transform="translate(-185.156 162.55)" fill="#72b5e8"/>
      <path id="Path_1339" data-name="Path 1339" d="M653.558,231.294V236.6L367.89,70.678V65.41Z" transform="translate(-337.953 75.231)" fill="#363795"/>
      <path id="Path_1340" data-name="Path 1340" d="M367.89,66.836,653.558,232.72l4.6-2.645L372.47,64.17Z" transform="translate(-337.953 73.805)" fill="#005c97"/>
      <path id="Path_1341" data-name="Path 1341" d="M500.73,144.016l21.05,35.047,4.623-2.645-21.05-35.069Z" transform="translate(-185.168 162.573)" fill="#363795"/>
      <path id="Path_1342" data-name="Path 1342" d="M503.19,144l21.05,35.047-4.58-2.645L498.61,141.36Z" transform="translate(-187.606 162.584)" fill="#005c97"/>
      <path id="Path_1343" data-name="Path 1343" d="M410.13,59.1V421.868l4.623-2.645V56.43Z" transform="translate(-289.371 64.903)" fill="#363795"/>
      <path id="Path_1344" data-name="Path 1344" d="M412.59,59.085V421.857l-4.58-2.645V56.44Z" transform="translate(-291.809 64.914)" fill="#363795"/>
      <path id="Path_1345" data-name="Path 1345" d="M408.01,57.866l4.58,2.645,4.6-2.666-4.6-2.645Z" transform="translate(-291.809 63.488)" fill="#d1ebff"/>
      <path id="Path_1346" data-name="Path 1346" d="M399.731,121.276v5.289l-4.6-2.666V118.61Z" transform="translate(-306.623 136.418)" fill="#72b5e8"/>
      <path id="Path_1347" data-name="Path 1347" d="M397.27,128.4v5.289l27.651-15.976V112.42Z" transform="translate(-304.162 129.299)" fill="#72b5e8"/>
      <path id="Path_1348" data-name="Path 1348" d="M427.382,113.846l-27.651,15.976-4.6-2.666L422.8,111.18Z" transform="translate(-306.623 127.873)" fill="#d1ebff"/>
      <path id="Path_1349" data-name="Path 1349" d="M399.731,141.106V146.4l-4.6-2.645V138.44Z" transform="translate(-306.623 159.226)" fill="#72b5e8"/>
      <path id="Path_1350" data-name="Path 1350" d="M397.27,148.226v5.289l27.651-15.976V132.25Z" transform="translate(-304.162 152.106)" fill="#363795"/>
      <path id="Path_1351" data-name="Path 1351" d="M427.382,133.676l-27.651,15.976-4.6-2.666L422.8,131.01Z" transform="translate(-306.623 150.68)" fill="#005c97"/>
      <path id="Path_1352" data-name="Path 1352" d="M399.731,160.845v5.311l-4.6-2.666V158.2Z" transform="translate(-306.623 181.953)" fill="#72b5e8"/>
      <path id="Path_1353" data-name="Path 1353" d="M397.27,167.964v5.311l27.651-16V152.01Z" transform="translate(-304.162 174.833)" fill="#363795"/>
      <path id="Path_1354" data-name="Path 1354" d="M427.382,153.448,399.731,169.4l-4.6-2.645,27.672-16Z" transform="translate(-306.623 173.396)" fill="#005c97"/>
      <path id="Path_1355" data-name="Path 1355" d="M399.731,180.546v5.289l-4.6-2.645V177.88Z" transform="translate(-306.623 204.587)" fill="#72b5e8"/>
      <path id="Path_1356" data-name="Path 1356" d="M397.27,187.666v5.289l27.651-15.976V171.69Z" transform="translate(-304.162 197.468)" fill="#363795"/>
      <path id="Path_1357" data-name="Path 1357" d="M427.382,173.116l-27.651,15.976-4.6-2.666L422.8,170.45Z" transform="translate(-306.623 196.042)" fill="#005c97"/>
      <path id="Path_1358" data-name="Path 1358" d="M399.731,200.365v5.289l-4.6-2.645V197.72Z" transform="translate(-306.623 227.406)" fill="#72b5e8"/>
      <path id="Path_1359" data-name="Path 1359" d="M397.27,207.484v5.289L424.921,196.8V191.53Z" transform="translate(-304.162 220.287)" fill="#363795"/>
      <path id="Path_1360" data-name="Path 1360" d="M427.382,192.968l-27.651,15.954-4.6-2.645,27.672-16Z" transform="translate(-306.623 218.849)" fill="#005c97"/>
      <path id="Path_1361" data-name="Path 1361" d="M399.731,220.136v5.289l-4.6-2.666V217.47Z" transform="translate(-306.623 250.122)" fill="#72b5e8"/>
      <path id="Path_1362" data-name="Path 1362" d="M397.27,227.256v5.289l27.651-15.976V211.28Z" transform="translate(-304.162 243.002)" fill="#363795"/>
      <path id="Path_1363" data-name="Path 1363" d="M427.382,212.706l-27.651,15.976-4.6-2.666L422.8,210.04Z" transform="translate(-306.623 241.576)" fill="#005c97"/>
      <path id="Path_1364" data-name="Path 1364" d="M395.13,67.556V430.78l4.623-2.666V64.89Z" transform="translate(-306.623 74.633)" fill="#363795"/>
      <path id="Path_1365" data-name="Path 1365" d="M397.59,67.545V430.768l-4.58-2.666V64.9Z" transform="translate(-309.061 74.644)" fill="#005c97"/>
      <path id="Path_1366" data-name="Path 1366" d="M393.01,66.326l4.58,2.645,4.6-2.666-4.6-2.645Z" transform="translate(-309.061 73.218)" fill="#d1ebff"/>
      <path id="Path_1367" data-name="Path 1367" d="M407.98,228.895v5.311l4.623-2.666V226.25Z" transform="translate(-291.844 260.22)" fill="#72b5e8"/>
      <path id="Path_1368" data-name="Path 1368" d="M422.781,236.014v5.311l-27.651-16V220.06Z" transform="translate(-306.623 253.1)" fill="#363795"/>
      <path id="Path_1369" data-name="Path 1369" d="M395.13,221.5l27.651,15.954,4.6-2.645-27.672-16Z" transform="translate(-306.623 251.663)" fill="#005c97"/>
      <path id="Path_1370" data-name="Path 1370" d="M407.98,226.395v5.311l4.623-2.666V223.75Z" transform="translate(-291.844 257.344)" fill="#72b5e8"/>
      <path id="Path_1371" data-name="Path 1371" d="M422.781,250.352v5.311L395.13,208.209V202.92Z" transform="translate(-306.623 233.387)" fill="#363795"/>
      <path id="Path_1372" data-name="Path 1372" d="M395.13,204.346l27.651,47.432,4.6-2.645L399.71,201.68Z" transform="translate(-306.623 231.961)" fill="#005c97"/>
      <path id="Path_1373" data-name="Path 1373" d="M407.98,209.156v5.289L412.6,211.8V206.49Z" transform="translate(-291.844 237.493)" fill="#72b5e8"/>
      <path id="Path_1374" data-name="Path 1374" d="M422.781,216.276v5.289L395.13,205.589V200.3Z" transform="translate(-306.623 230.374)" fill="#363795"/>
      <path id="Path_1375" data-name="Path 1375" d="M395.13,201.726,422.781,217.7l4.6-2.666L399.71,199.06Z" transform="translate(-306.623 228.947)" fill="#005c97"/>
      <path id="Path_1376" data-name="Path 1376" d="M414.683,228.895v5.311l-4.623-2.666V226.25Z" transform="translate(-289.451 260.22)" fill="#72b5e8"/>
      <path id="Path_1377" data-name="Path 1377" d="M412.2,236.014v5.311l27.651-16V220.06Z" transform="translate(-286.99 253.1)" fill="#363795"/>
      <path id="Path_1378" data-name="Path 1378" d="M442.312,221.5l-27.651,15.954-4.6-2.645,27.672-16Z" transform="translate(-289.451 251.663)" fill="#005c97"/>
      <path id="Path_1379" data-name="Path 1379" d="M414.683,228.895v5.311l-4.623-2.666V226.25Z" transform="translate(-289.451 260.22)" fill="#72b5e8"/>
      <path id="Path_1380" data-name="Path 1380" d="M412.2,255.819v5.311l27.651-53V202.84Z" transform="translate(-286.99 233.295)" fill="#363795"/>
      <path id="Path_1381" data-name="Path 1381" d="M442.312,204.266l-27.651,52.98-4.6-2.645,27.672-53Z" transform="translate(-289.451 231.869)" fill="#005c97"/>
      <path id="Path_1382" data-name="Path 1382" d="M414.683,209.156v5.289L410.06,211.8V206.49Z" transform="translate(-289.451 237.493)" fill="#72b5e8"/>
      <path id="Path_1383" data-name="Path 1383" d="M412.2,216.276v5.289l27.651-15.976V200.3Z" transform="translate(-286.99 230.374)" fill="#363795"/>
      <path id="Path_1384" data-name="Path 1384" d="M442.312,201.726,414.661,217.7l-4.6-2.666,27.672-15.976Z" transform="translate(-289.451 228.947)" fill="#005c97"/>
      <path id="Path_1385" data-name="Path 1385" d="M414.683,206.786v5.289l-4.623-2.645V204.12Z" transform="translate(-289.451 234.767)" fill="#72b5e8"/>
      <path id="Path_1386" data-name="Path 1386" d="M412.2,233.7v5.289l27.651-53V180.72Z" transform="translate(-286.99 207.854)" fill="#363795"/>
      <path id="Path_1387" data-name="Path 1387" d="M442.312,182.158l-27.651,52.98-4.6-2.666,27.672-53Z" transform="translate(-289.451 206.416)" fill="#005c97"/>
      <path id="Path_1388" data-name="Path 1388" d="M414.683,189.326v5.289l-4.623-2.666V186.66Z" transform="translate(-289.451 214.686)" fill="#72b5e8"/>
      <path id="Path_1389" data-name="Path 1389" d="M412.2,196.446v5.289l27.651-15.976V180.47Z" transform="translate(-286.99 207.566)" fill="#363795"/>
      <path id="Path_1390" data-name="Path 1390" d="M442.312,181.9l-27.651,15.976-4.6-2.666,27.672-15.976Z" transform="translate(-289.451 206.14)" fill="#005c97"/>
      <path id="Path_1391" data-name="Path 1391" d="M407.98,130.056v5.289l4.623-2.666V127.39Z" transform="translate(-291.844 146.517)" fill="#72b5e8"/>
      <path id="Path_1392" data-name="Path 1392" d="M422.781,137.176v5.289l-27.651-16V121.2Z" transform="translate(-306.623 139.397)" fill="#a8cff0"/>
      <path id="Path_1393" data-name="Path 1393" d="M395.13,122.626,422.781,138.6l4.6-2.666L399.71,119.96Z" transform="translate(-306.623 137.971)" fill="#d1ebff"/>
      <path id="Path_1394" data-name="Path 1394" d="M414.683,130.056v5.289l-4.623-2.666V127.39Z" transform="translate(-289.451 146.517)" fill="#72b5e8"/>
      <path id="Path_1395" data-name="Path 1395" d="M412.2,137.176v5.289l27.651-16V121.2Z" transform="translate(-286.99 139.397)" fill="#72b5e8"/>
      <path id="Path_1396" data-name="Path 1396" d="M442.312,122.626,414.661,138.6l-4.6-2.666,27.672-15.976Z" transform="translate(-289.451 137.971)" fill="#d1ebff"/>
      <path id="Path_1397" data-name="Path 1397" d="M407.98,110.366v5.289l4.623-2.666V107.7Z" transform="translate(-291.844 123.87)" fill="#72b5e8"/>
      <path id="Path_1398" data-name="Path 1398" d="M422.781,117.486v5.289L395.13,106.8V101.51Z" transform="translate(-306.623 116.751)" fill="#a8cff0"/>
      <path id="Path_1399" data-name="Path 1399" d="M395.13,102.936l27.651,15.976,4.6-2.666L399.71,100.27Z" transform="translate(-306.623 115.325)" fill="#d1ebff"/>
      <path id="Path_1400" data-name="Path 1400" d="M415.36,59.7v5.289l4.623-2.666V57.03Z" transform="translate(-283.355 65.593)" fill="#72b5e8"/>
      <path id="Path_1401" data-name="Path 1401" d="M423.95,63.4v5.289L407.91,59.1V53.81Z" transform="translate(-291.924 61.889)" fill="#363795"/>
      <path id="Path_1402" data-name="Path 1402" d="M407.91,55.236l16.04,9.59,4.6-2.666L412.49,52.57Z" transform="translate(-291.924 60.463)" fill="#005c97"/>
      <path id="Path_1403" data-name="Path 1403" d="M415.33,59.726,436.315,94.58l4.623-2.666L419.953,57.06Z" transform="translate(-283.39 65.627)" fill="#363795"/>
      <path id="Path_1404" data-name="Path 1404" d="M417.79,59.715l20.985,34.854L434.2,91.9,413.21,57.07Z" transform="translate(-285.828 65.639)" fill="#363795"/>
      <path id="Path_1405" data-name="Path 1405" d="M399.731,63.975v5.311l-4.6-2.666V61.33Z" transform="translate(-306.623 70.538)" fill="#72b5e8"/>
      <path id="Path_1406" data-name="Path 1406" d="M397.27,71.094V76.4l27.651-16V55.14Z" transform="translate(-304.162 63.419)" fill="#363795"/>
      <path id="Path_1407" data-name="Path 1407" d="M427.382,56.566,399.731,72.52l-4.6-2.645L422.8,53.9Z" transform="translate(-306.623 61.993)" fill="#005c97"/>
      <path id="Path_1408" data-name="Path 1408" d="M414.623,83.366v5.289L410,86.011V80.7Z" transform="translate(-289.52 92.817)" fill="#72b5e8"/>
      <path id="Path_1409" data-name="Path 1409" d="M412.14,90.486v5.289L439.791,79.8V74.51Z" transform="translate(-287.059 85.697)" fill="#363795"/>
      <path id="Path_1410" data-name="Path 1410" d="M442.252,75.936,414.6,91.912,410,89.246,437.672,73.27Z" transform="translate(-289.52 84.271)" fill="#005c97"/>
      <path id="Path_1411" data-name="Path 1411" d="M414.683,186.895v5.311l-4.623-2.666V184.25Z" transform="translate(-289.451 211.914)" fill="#72b5e8"/>
      <path id="Path_1412" data-name="Path 1412" d="M412.2,213.819v5.311l27.651-53V160.84Z" transform="translate(-286.99 184.989)" fill="#363795"/>
      <path id="Path_1413" data-name="Path 1413" d="M442.312,162.266l-27.651,52.979-4.6-2.645,27.672-53Z" transform="translate(-289.451 183.563)" fill="#005c97"/>
      <path id="Path_1414" data-name="Path 1414" d="M414.683,169.636v5.289l-4.623-2.645V166.97Z" transform="translate(-289.451 192.039)" fill="#72b5e8"/>
      <path id="Path_1415" data-name="Path 1415" d="M412.2,176.756v5.289l27.651-15.976V160.78Z" transform="translate(-286.99 184.92)" fill="#363795"/>
      <path id="Path_1416" data-name="Path 1416" d="M442.312,162.206l-27.651,15.976-4.6-2.666,27.672-15.976Z" transform="translate(-289.451 183.494)" fill="#005c97"/>
      <path id="Path_1417" data-name="Path 1417" d="M414.683,167.206V172.5l-4.623-2.666V164.54Z" transform="translate(-289.451 189.244)" fill="#72b5e8"/>
      <path id="Path_1418" data-name="Path 1418" d="M412.2,194.131v5.289l27.651-53V141.13Z" transform="translate(-286.99 162.32)" fill="#363795"/>
      <path id="Path_1419" data-name="Path 1419" d="M442.312,142.556l-27.651,53-4.6-2.666,27.672-53Z" transform="translate(-289.451 160.894)" fill="#005c97"/>
      <path id="Path_1420" data-name="Path 1420" d="M414.683,149.886v5.289l-4.623-2.666V147.22Z" transform="translate(-289.451 169.324)" fill="#72b5e8"/>
      <path id="Path_1421" data-name="Path 1421" d="M412.2,157.006v5.289l27.651-15.976V141.03Z" transform="translate(-286.99 162.205)" fill="#363795"/>
      <path id="Path_1422" data-name="Path 1422" d="M442.312,142.456l-27.651,15.976-4.6-2.666,27.672-15.976Z" transform="translate(-289.451 160.778)" fill="#005c97"/>
      <path id="Path_1423" data-name="Path 1423" d="M414.683,147.6v5.311l-4.623-2.666V144.96Z" transform="translate(-289.451 166.725)" fill="#72b5e8"/>
      <path id="Path_1424" data-name="Path 1424" d="M412.2,174.53v5.311l27.651-53.022V121.55Z" transform="translate(-286.99 139.8)" fill="#363795"/>
      <path id="Path_1425" data-name="Path 1425" d="M442.312,122.976l-27.651,52.98-4.6-2.645,27.672-53Z" transform="translate(-289.451 138.374)" fill="#005c97"/>
      <path id="Path_1426" data-name="Path 1426" d="M407.98,206.645v5.311l4.623-2.666V204Z" transform="translate(-291.844 234.629)" fill="#72b5e8"/>
      <path id="Path_1427" data-name="Path 1427" d="M422.781,230.6v5.311L395.13,188.459V183.17Z" transform="translate(-306.623 210.672)" fill="#363795"/>
      <path id="Path_1428" data-name="Path 1428" d="M395.13,184.6l27.651,47.432,4.6-2.645L399.71,181.93Z" transform="translate(-306.623 209.245)" fill="#005c97"/>
      <path id="Path_1429" data-name="Path 1429" d="M407.98,189.326v5.289l4.623-2.666V186.66Z" transform="translate(-291.844 214.686)" fill="#72b5e8"/>
      <path id="Path_1430" data-name="Path 1430" d="M422.781,196.446v5.289L395.13,185.759V180.47Z" transform="translate(-306.623 207.566)" fill="#363795"/>
      <path id="Path_1431" data-name="Path 1431" d="M395.13,181.9l27.651,15.976,4.6-2.666L399.71,179.23Z" transform="translate(-306.623 206.14)" fill="#005c97"/>
      <path id="Path_1432" data-name="Path 1432" d="M407.98,186.895v5.311l4.623-2.666V184.25Z" transform="translate(-291.844 211.914)" fill="#72b5e8"/>
      <path id="Path_1433" data-name="Path 1433" d="M422.781,210.852v5.311L395.13,168.709V163.42Z" transform="translate(-306.623 187.956)" fill="#363795"/>
      <path id="Path_1434" data-name="Path 1434" d="M395.13,164.846l27.651,47.432,4.6-2.645L399.71,162.18Z" transform="translate(-306.623 186.53)" fill="#005c97"/>
      <path id="Path_1435" data-name="Path 1435" d="M407.98,169.636v5.289l4.623-2.645V166.97Z" transform="translate(-291.844 192.039)" fill="#72b5e8"/>
      <path id="Path_1436" data-name="Path 1436" d="M422.781,176.756v5.289L395.13,166.069V160.78Z" transform="translate(-306.623 184.92)" fill="#363795"/>
      <path id="Path_1437" data-name="Path 1437" d="M395.13,162.206l27.651,15.976,4.6-2.666L399.71,159.54Z" transform="translate(-306.623 183.494)" fill="#005c97"/>
      <path id="Path_1438" data-name="Path 1438" d="M407.98,167.145v5.311l4.623-2.666V164.5Z" transform="translate(-291.844 189.199)" fill="#72b5e8"/>
      <path id="Path_1439" data-name="Path 1439" d="M422.781,191.1v5.311L395.13,148.959V143.67Z" transform="translate(-306.623 165.241)" fill="#363795"/>
      <path id="Path_1440" data-name="Path 1440" d="M395.13,145.1l27.651,47.432,4.6-2.645L399.71,142.43Z" transform="translate(-306.623 163.815)" fill="#005c97"/>
      <path id="Path_1441" data-name="Path 1441" d="M407.98,149.886v5.289l4.623-2.666V147.22Z" transform="translate(-291.844 169.324)" fill="#72b5e8"/>
      <path id="Path_1442" data-name="Path 1442" d="M422.781,157.006v5.289L395.13,146.319V141.03Z" transform="translate(-306.623 162.205)" fill="#363795"/>
      <path id="Path_1443" data-name="Path 1443" d="M395.13,142.456l27.651,15.976,4.6-2.666L399.71,139.79Z" transform="translate(-306.623 160.778)" fill="#005c97"/>
      <path id="Path_1444" data-name="Path 1444" d="M407.98,147.5v5.289l4.623-2.666V144.83Z" transform="translate(-291.844 166.575)" fill="#72b5e8"/>
      <path id="Path_1445" data-name="Path 1445" d="M422.781,171.442v5.289L395.13,129.278V124.01Z" transform="translate(-306.623 142.629)" fill="#363795"/>
      <path id="Path_1446" data-name="Path 1446" d="M395.13,125.448l27.651,47.432,4.6-2.666L399.71,122.76Z" transform="translate(-306.623 141.192)" fill="#005c97"/>
      <path id="Path_1447" data-name="Path 1447" d="M410.13,84.646v345.1l4.623-2.645V81.98Z" transform="translate(-289.371 94.289)" fill="#005c97"/>
      <path id="Path_1448" data-name="Path 1448" d="M412.59,84.635v345.1l-4.58-2.645V81.99Z" transform="translate(-291.809 94.3)" fill="#363795"/>
      <path id="Path_1450" data-name="Path 1450" d="M443.483,184.163,385.3,150.577V92.33l38.509,22.232,19.674,51.668Z" transform="translate(-317.929 106.193)" fill="#ffa000"/>
      <path id="Path_1451" data-name="Path 1451" d="M412.36,137.822v17.932L448.8,134.962V117.03Z" transform="translate(-286.806 134.601)" fill="#d58600"/>
      <path id="Path_1452" data-name="Path 1452" d="M439.676,93,403.21,113.792l19.674,51.668,36.445-20.792Z" transform="translate(-297.33 106.963)" fill="#d58600"/>
      <path id="Path_1453" data-name="Path 1453" d="M404.34,116.9l17.363,45.26,36.7-20.792L440.97,95.87Z" transform="translate(-296.399 110.264)" fill="#63a0ce"/>
      <path id="Path_1455" data-name="Path 1455" d="M421.745,82.66,385.3,103.452l38.509,22.232,36.466-20.792Z" transform="translate(-317.929 95.071)" fill="#ffa000"/>
      <path id="Path_1456" data-name="Path 1456" d="M423.788,113.122,385.3,92.33l38.509,22.232,36.466-20.792Z" transform="translate(-317.929 106.193)" fill="#fea000"/>
      <path id="Path_1457" data-name="Path 1457" d="M391.99,98.5v35.477l43.8,25.264v-.108l-17.244-45.3Z" transform="translate(-310.234 113.289)" fill="#72b5e8"/>
      <path id="Path_1459" data-name="Path 1459" d="M404.981,67.116v5.289l-4.6-2.645V64.45Z" transform="translate(-300.585 74.127)" fill="#72b5e8"/>
      <path id="Path_1460" data-name="Path 1460" d="M402.52,74.236v5.289l27.651-15.976V58.26Z" transform="translate(-298.123 67.007)" fill="#363795"/>
      <path id="Path_1461" data-name="Path 1461" d="M432.632,59.686,404.981,75.662,400.38,73,428.052,57.02Z" transform="translate(-300.585 65.581)" fill="#005c97"/>
      <path id="Path_1462" data-name="Path 1462" d="M400.49,68.326v5.289l4.623-2.666V65.66Z" transform="translate(-300.458 75.518)" fill="#72b5e8"/>
      <path id="Path_1463" data-name="Path 1463" d="M409.092,72.03v5.289l-16.062-9.59V62.44Z" transform="translate(-309.038 71.815)" fill="#005c97"/>
      <path id="Path_1464" data-name="Path 1464" d="M393.03,63.866l16.062,9.59,4.6-2.666L397.61,61.2Z" transform="translate(-309.038 70.389)" fill="#005c97"/>
      <path id="Path_1465" data-name="Path 1465" d="M400.48,68.346l21.05,35.047,4.623-2.645L405.1,65.68Z" transform="translate(-300.47 75.541)" fill="#363795"/>
      <path id="Path_1466" data-name="Path 1466" d="M402.94,68.335l21.05,35.047-4.58-2.645L398.36,65.69Z" transform="translate(-302.908 75.553)" fill="#005c97"/>
    </g>
  </g>
</svg>
