<svg xmlns="http://www.w3.org/2000/svg" width="51.326" height="46.111" viewBox="0 0 51.326 46.111">
  <path id="telegram-svgrepo-com_2_" data-name="telegram-svgrepo-com (2)" d="M49.528,4a5.873,5.873,0,0,0-1.844.44h-.007c-.563.223-3.239,1.349-7.3,3.053L25.8,13.631c-10.459,4.4-20.743,8.74-20.743,8.74l.122-.046a6.332,6.332,0,0,0-1.451.74,4.007,4.007,0,0,0-1.158,1.118,3.287,3.287,0,0,0-.547,2.191,3.974,3.974,0,0,0,1.767,2.753,5.861,5.861,0,0,0,1.311.7h.016l9.646,3.248C15.192,34.466,17.7,42.7,18.3,44.6a7.069,7.069,0,0,0,1.134,2.383,2.79,2.79,0,0,0,.748.695,2.212,2.212,0,0,0,.366.17.332.332,0,0,0,.122.039l-.1-.023a.7.7,0,0,1,.077.039,1.532,1.532,0,0,0,.232.046,3.266,3.266,0,0,0,2.753-.488l.07-.054,5.685-5.189,9.542,7.326.216.093a5.067,5.067,0,0,0,5.067-.47A5.164,5.164,0,0,0,45.7,47.2l.07-.177L53.146,9.251A5.429,5.429,0,0,0,53.177,6.6,3.568,3.568,0,0,0,51.635,4.53,3.7,3.7,0,0,0,49.528,4Zm-.2,4.049a1.153,1.153,0,0,1-.039.347V8.42L41.985,45.8a.84.84,0,0,1-.232.286c-.154.122-.277.2-.918-.054L29.164,37.08,22.114,43.5l1.481-9.457L42.66,16.277c.786-.733.525-.886.525-.886.054-.9-1.188-.263-1.188-.263l-24.042,14.9-.007-.039L6.427,26.1h0c-.007,0-.023-.007-.031-.007a.531.531,0,0,0,.062-.023l.062-.031.062-.023,20.749-8.739c5.237-2.206,10.513-4.427,14.571-6.139S48.96,8.185,49.13,8.116s.082-.068.2-.068Z" transform="translate(-2.001 -3.996)" fill="#fff"/>
</svg>
