<svg xmlns="http://www.w3.org/2000/svg" width="55.784" height="46.102" viewBox="0 0 55.784 46.102">
  <path id="twitter-svgrepo-com_2_" data-name="twitter-svgrepo-com (2)" d="M36.982,3.472a12.727,12.727,0,0,1,4.186-.066,12.584,12.584,0,0,1,6.594,3.3,10.357,10.357,0,0,0,3.38-.54,13.909,13.909,0,0,0,2.125-.89c.256-.134.455-.244.584-.325l.139-.085.024-.016a1.946,1.946,0,0,1,2.7,2.686c-.538.818-1.287,2.276-2.126,3.907l-.4.781c-.481.934-.977,1.878-1.433,2.686-.288.508-.6,1.024-.908,1.465v.725A32.018,32.018,0,0,1,19.5,49.364,31.965,31.965,0,0,1,2.14,44.253a1.946,1.946,0,0,1,1.294-3.567,18.612,18.612,0,0,0,2.349.14A19.385,19.385,0,0,0,13.9,39.021a12.612,12.612,0,0,1-6.769-7.583,1.946,1.946,0,0,1,.38-1.878l.024-.028a12.577,12.577,0,0,1-4.209-9.321v-.139a1.946,1.946,0,0,1,1.435-1.879A12.558,12.558,0,0,1,3.43,12.544,12.74,12.74,0,0,1,5.113,6.207a1.946,1.946,0,0,1,3.2-.259,28.256,28.256,0,0,0,9.148,7.388,28.256,28.256,0,0,0,5.684,2.153,28.249,28.249,0,0,0,3.344.657,12.584,12.584,0,0,1,6.65-11.432,13.164,13.164,0,0,1,3.844-1.242ZM7.719,23.056a8.691,8.691,0,0,0,6.495,5.617,1.946,1.946,0,0,1,.187,3.771,12.128,12.128,0,0,1-2.164.448,8.719,8.719,0,0,0,6.716,3.372,1.946,1.946,0,0,1,1.166,3.475,23.273,23.273,0,0,1-9.205,4.4,28.073,28.073,0,0,0,8.6,1.343h.022a28.125,28.125,0,0,0,28.423-28.35V15.737a1.946,1.946,0,0,1,.488-1.282A10.33,10.33,0,0,0,49.376,13c.416-.733.878-1.617,1.358-2.548l.088-.17a12.953,12.953,0,0,1-4.133.252,1.945,1.945,0,0,1-1.221-.611,8.692,8.692,0,0,0-4.94-2.678,8.873,8.873,0,0,0-2.88.065,9.353,9.353,0,0,0-2.666.839,8.692,8.692,0,0,0-4.365,9.7,1.946,1.946,0,0,1-1.99,2.4,32.146,32.146,0,0,1-6.463-.993,32.147,32.147,0,0,1-6.471-2.449,32.147,32.147,0,0,1-8.205-5.968,8.849,8.849,0,0,0-.165,1.709h0a8.669,8.669,0,0,0,3.856,7.225,1.946,1.946,0,0,1-1.132,3.559,12.454,12.454,0,0,1-2.326-.277Z" transform="translate(-1.25 -3.264)" fill="#fff" fill-rule="evenodd"/>
</svg>
