<svg xmlns="http://www.w3.org/2000/svg" width="87" height="87" viewBox="0 0 87 87">
  <g id="work-svgrepo-com" transform="translate(-2.25 -2.25)">
    <path id="Path_771" data-name="Path 771" d="M24.013,6.251l-.854-3.235h0Zm10.083,0-.854,3.235h0ZM24.868,9.486a16.4,16.4,0,0,1,8.374,0l1.709-6.47a23.091,23.091,0,0,0-11.792,0ZM51.037,23.724A21.479,21.479,0,0,0,34.951,3.015l-1.709,6.47a14.787,14.787,0,0,1,11.1,14.238Zm-37.272,0a14.786,14.786,0,0,1,11.1-14.238l-1.709-6.47A21.478,21.478,0,0,0,7.073,23.724Z" transform="translate(16.695 0)" fill="#363795"/>
    <path id="Path_772" data-name="Path 772" d="M7.307,54.136l3.218-.918ZM7.291,29.745l3.218.919Zm76.917,0-3.218.919h0Zm-.016,24.391,3.218.918ZM63.564,72.944l-.634-3.285Zm-35.629,0,.633-3.285Zm3.417-62.721.633,3.286Zm28.795,0,.634-3.286Zm4.79.923L64.3,14.432ZM83.793,28.292l3.218-.918h0ZM26.563,11.147l-.633-3.286h0ZM7.706,28.292l-3.218-.918h0ZM27.2,14.432l4.79-.923L30.719,6.938l-4.79.924Zm32.317-.923,4.79.923,1.267-6.571-4.79-.923Zm21.062,15.7.415,1.454,6.435-1.837-.415-1.454ZM10.509,30.664l.415-1.454L4.489,27.373l-.415,1.454Zm.016,22.554a41.169,41.169,0,0,1-.016-22.554L4.074,28.827a47.862,47.862,0,0,0,.016,26.227ZM80.99,30.664a41.168,41.168,0,0,1-.016,22.554l6.435,1.836a47.859,47.859,0,0,0,.016-26.227Zm-18.06,39a90.763,90.763,0,0,1-34.362,0L27.3,76.23a97.469,97.469,0,0,0,36.9,0ZM31.986,13.509a72.719,72.719,0,0,1,27.528,0l1.267-6.571a79.413,79.413,0,0,0-30.062,0Zm-3.417,56.15A23.362,23.362,0,0,1,10.525,53.218L4.089,55.055A30.055,30.055,0,0,0,27.3,76.23ZM64.2,76.23A30.055,30.055,0,0,0,87.41,55.055l-6.435-1.836A23.362,23.362,0,0,1,62.931,69.659Zm.106-61.8A20.991,20.991,0,0,1,80.576,29.21l6.435-1.836A27.683,27.683,0,0,0,65.571,7.861ZM25.929,7.861A27.683,27.683,0,0,0,4.489,27.373l6.435,1.836A20.991,20.991,0,0,1,27.2,14.432ZM7.317,33.563a110.872,110.872,0,0,0,76.866,0l-2.322-6.276a104.179,104.179,0,0,1-72.222,0Z" transform="translate(0 11.258)" fill="#363853"/>
    <path id="Path_773" data-name="Path 773" d="M8,10.5V26.115" transform="translate(19.904 28.558)" fill="none" stroke="#363795" stroke-linecap="round" stroke-width="7"/>
    <path id="Path_774" data-name="Path 774" d="M16,10.5V26.115" transform="translate(47.596 28.558)" fill="none" stroke="#363795" stroke-linecap="round" stroke-width="7"/>
  </g>
</svg>
